<svg width="150" height="50" viewBox="0 0 150 50" fill="none" xmlns="http://www.w3.org/2000/svg">
<path d="M144.449 50H5.55144C2.44264 50 0 47.125 0 43.75V6.25C0 2.75 2.55366 0 5.55144 0H144.449C147.557 0 150 2.875 150 6.25V43.75C150 47.25 147.446 50 144.449 50Z" fill="black"/>
<path d="M144.449 1C147.002 1 149.112 3.375 149.112 6.25V43.75C149.112 46.625 147.002 49 144.449 49H5.55144C2.99778 49 0.888231 46.625 0.888231 43.75V6.25C0.888231 3.375 2.99778 1 5.55144 1H144.449ZM144.449 0H5.55144C2.55366 0 0 2.875 0 6.25V43.75C0 47.25 2.55366 50 5.55144 50H144.449C147.557 50 150 47.125 150 43.75V6.25C150 2.875 147.446 0 144.449 0Z" fill="black"/>
<path d="M52.6282 12.7498C52.6282 13.7498 52.4061 14.6248 51.851 15.2498C51.1848 15.9998 50.4076 16.3748 49.4084 16.3748C48.4091 16.3748 47.6319 15.9998 46.9657 15.2498C46.2995 14.4998 45.9665 13.6248 45.9665 12.4998C45.9665 11.3748 46.2995 10.4998 46.9657 9.74976C47.6319 8.99976 48.4091 8.62476 49.4084 8.62476C49.8525 8.62476 50.2966 8.74976 50.7407 8.99976C51.1848 9.24976 51.5179 9.49976 51.74 9.87476L51.1848 10.4998C50.7407 9.87476 50.1856 9.62476 49.4084 9.62476C48.7422 9.62476 48.076 9.87476 47.6319 10.4998C47.0767 10.9998 46.8547 11.7498 46.8547 12.6248C46.8547 13.4998 47.0767 14.2498 47.6319 14.7498C48.187 15.2498 48.7422 15.6248 49.4084 15.6248C50.1856 15.6248 50.7407 15.3748 51.2958 14.7498C51.6289 14.3748 51.851 13.8748 51.851 13.2498H49.4084V12.2498H52.6282C52.6282 12.4998 52.6282 12.6248 52.6282 12.7498Z" fill="white" stroke="white" stroke-width="0.2" stroke-miterlimit="10"/>
<path d="M57.8463 9.62476H54.8486V11.9998H57.6243V12.8748H54.8486V15.2498H57.8463V16.2498H53.9603V8.74976H57.8463V9.62476Z" fill="white" stroke="white" stroke-width="0.2" stroke-miterlimit="10"/>
<path d="M61.3988 16.2498H60.5106V9.62476H58.6231V8.74976H63.2863V9.62476H61.3988V16.2498Z" fill="white" stroke="white" stroke-width="0.2" stroke-miterlimit="10"/>
<path d="M66.6189 16.2498V8.74976H67.5071V16.2498H66.6189Z" fill="white" stroke="white" stroke-width="0.2" stroke-miterlimit="10"/>
<path d="M71.2818 16.2498H70.3935V9.62476H68.506V8.74976H73.0582V9.62476H71.1707V16.2498H71.2818Z" fill="white" stroke="white" stroke-width="0.2" stroke-miterlimit="10"/>
<path d="M81.8289 15.2498C81.1627 15.9998 80.3855 16.3748 79.3863 16.3748C78.387 16.3748 77.6098 15.9998 76.9437 15.2498C76.2775 14.4998 75.9444 13.6248 75.9444 12.4998C75.9444 11.3748 76.2775 10.4998 76.9437 9.74976C77.6098 8.99976 78.387 8.62476 79.3863 8.62476C80.3855 8.62476 81.1627 8.99976 81.8289 9.74976C82.4951 10.4998 82.8282 11.3748 82.8282 12.4998C82.7172 13.6248 82.3841 14.4998 81.8289 15.2498ZM77.4988 14.6248C77.9429 15.1248 78.6091 15.4998 79.2753 15.4998C79.9414 15.4998 80.6076 15.2498 81.0517 14.6248C81.4958 14.1248 81.8289 13.3748 81.8289 12.4998C81.8289 11.6248 81.6069 10.8748 81.0517 10.3748C80.6076 9.87476 79.9414 9.49976 79.2753 9.49976C78.6091 9.49976 77.9429 9.74976 77.4988 10.3748C77.0547 10.8748 76.7216 11.6248 76.7216 12.4998C76.8326 13.3748 77.0547 14.1248 77.4988 14.6248Z" fill="white" stroke="white" stroke-width="0.2" stroke-miterlimit="10"/>
<path d="M83.9383 16.2498V8.74976H84.9375L88.1574 14.6248V13.1248V8.74976H89.0456V16.2498H88.1574L84.7155 10.1248V11.6248V16.2498H83.9383Z" fill="white" stroke="white" stroke-width="0.2" stroke-miterlimit="10"/>
<path d="M75.7228 27.25C73.0581 27.25 70.9485 29.5 70.9485 32.625C70.9485 35.75 73.0581 38 75.7228 38C78.3874 38 80.497 35.75 80.497 32.625C80.386 29.5 78.2764 27.25 75.7228 27.25ZM75.7228 35.75C74.2794 35.75 73.0581 34.375 73.0581 32.5C73.0581 30.625 74.2794 29.25 75.7228 29.25C77.1661 29.25 78.3874 30.5 78.3874 32.5C78.3874 34.375 77.1661 35.75 75.7228 35.75ZM65.3971 27.25C62.7324 27.25 60.6228 29.5 60.6228 32.625C60.6228 35.75 62.7324 38 65.3971 38C68.0618 38 70.1713 35.75 70.1713 32.625C70.0603 29.5 67.9507 27.25 65.3971 27.25ZM65.3971 35.75C63.9537 35.75 62.7324 34.375 62.7324 32.5C62.7324 30.625 63.9537 29.25 65.3971 29.25C66.8404 29.25 68.0618 30.5 68.0618 32.5C68.0618 34.375 66.7294 35.75 65.3971 35.75ZM53.0729 28.875V31.125H57.8471C57.7361 32.375 57.292 33.375 56.7368 34C56.0706 34.75 54.9604 35.625 53.0729 35.625C50.0751 35.625 47.8545 33 47.8545 29.625C47.8545 26.25 50.1861 23.625 53.0729 23.625C54.6273 23.625 55.8486 24.375 56.7368 25.25L58.1802 23.625C56.9589 22.375 55.4045 21.375 53.1839 21.375C49.1869 21.375 45.745 25.125 45.745 29.625C45.745 34.125 49.1869 37.875 53.1839 37.875C55.4045 37.875 56.9589 37.125 58.2912 35.5C59.6236 34 60.0677 31.875 60.0677 30.25C60.0677 29.75 60.0677 29.25 59.9567 28.875H53.0729ZM103.369 30.625C102.925 29.375 101.815 27.25 99.3719 27.25C96.9293 27.25 94.9307 29.375 94.9307 32.625C94.9307 35.625 96.9293 38 99.594 38C101.815 38 103.036 36.5 103.48 35.625L101.815 34.375C101.259 35.25 100.593 35.875 99.4829 35.875C98.3726 35.875 97.7065 35.375 97.1513 34.25L103.48 31.25L103.369 30.625ZM96.9293 32.375C96.9293 30.375 98.3726 29.25 99.3719 29.25C100.149 29.25 100.926 29.75 101.148 30.375L96.9293 32.375ZM91.8219 37.5H93.9315V21.875H91.8219V37.5ZM88.38 28.375C87.8249 27.75 86.9367 27.125 85.8264 27.125C83.4948 27.125 81.2742 29.5 81.2742 32.5C81.2742 35.5 83.4948 37.75 85.8264 37.75C86.9367 37.75 87.8249 37.125 88.269 36.5H88.38V37.25C88.38 39.25 87.3808 40.375 85.8264 40.375C84.6051 40.375 83.7168 39.375 83.4948 38.5L81.7183 39.375C82.2735 40.75 83.6058 42.5 85.9374 42.5C88.38 42.5 90.3786 40.875 90.3786 37V27.5H88.38V28.375ZM86.0484 35.75C84.6051 35.75 83.3837 34.375 83.3837 32.5C83.3837 30.625 84.6051 29.25 86.0484 29.25C87.4918 29.25 88.6021 30.625 88.6021 32.5C88.4911 34.375 87.3808 35.75 86.0484 35.75ZM113.139 21.875H108.143V37.5H110.253V31.625H113.139C115.471 31.625 117.692 29.75 117.692 26.75C117.692 23.75 115.36 21.875 113.139 21.875ZM113.139 29.375H110.142V24H113.139C114.694 24 115.582 25.5 115.582 26.625C115.582 28 114.694 29.375 113.139 29.375ZM126.019 27.125C124.464 27.125 122.91 27.875 122.355 29.5L124.242 30.375C124.686 29.5 125.353 29.25 126.13 29.25C127.24 29.25 128.239 30 128.35 31.25V31.375C128.017 31.125 127.129 30.75 126.241 30.75C124.242 30.75 122.244 32 122.244 34.25C122.244 36.375 123.909 37.75 125.686 37.75C127.129 37.75 127.795 37 128.35 36.25H128.461V37.5H130.46V31.5C130.238 28.75 128.35 27.125 126.019 27.125ZM125.686 35.75C125.02 35.75 124.02 35.375 124.02 34.375C124.02 33.125 125.242 32.75 126.241 32.75C127.129 32.75 127.573 33 128.128 33.25C128.017 34.75 126.907 35.75 125.686 35.75ZM137.455 27.5L135.123 34.25H135.012L132.57 27.5H130.349L134.013 37L131.903 42.25H134.013L139.675 27.5H137.455ZM118.802 37.5H120.911V21.875H118.802V37.5Z" fill="white"/>
<path d="M11.5473 9.375C11.3252 9.875 11.1032 10.375 11.1032 11.125V38.75C11.1032 39.5 11.3252 40.125 11.6583 40.5L11.7694 40.625L25.5369 25.125V25V24.875L11.5473 9.375Z" fill="#22D5FD"/>
<path d="M29.9785 30.3752L25.4263 25.2502V25.0002V24.8752L29.9785 19.7502L30.0895 19.8752L35.5299 23.3752C37.0843 24.3752 37.0843 26.0002 35.5299 27.0002L29.9785 30.3752Z" fill="#FEC929"/>
<path d="M30.0902 30.25L25.4269 25L11.5483 40.625C12.1035 41.25 12.8807 41.25 13.8799 40.75L30.0902 30.25Z" fill="#F3304C"/>
<path d="M30.0902 19.7503L13.8799 9.37526C12.8807 8.75026 12.1035 8.87526 11.5483 9.50026L25.4269 25.0003L30.0902 19.7503Z" fill="#21F07A"/>
<path opacity="0.2" d="M29.98 30.1252L13.8808 40.5002C12.9925 41.1252 12.2153 41.0002 11.6602 40.5002L11.5492 40.6252L11.6602 40.7502C12.2153 41.2502 12.9925 41.3752 13.8808 40.7502L29.98 30.1252Z" fill="black"/>
<path opacity="0.12" d="M11.5481 40.3755C11.3261 40.0005 11.104 39.5005 11.104 38.6255V38.7505C11.104 39.5005 11.3261 40.1255 11.6591 40.5005V40.3755H11.5481Z" fill="black"/>
<path opacity="0.12" d="M35.5302 26.625L29.9787 30.125L30.0898 30.25L35.5302 26.75C36.3074 26.25 36.6405 25.625 36.6405 25C36.6405 25.625 36.3074 26.25 35.5302 26.625Z" fill="black"/>
<path opacity="0.25" d="M13.8789 9.50009L35.5295 23.3751C36.1957 23.8751 36.6398 24.3751 36.6398 25.0001C36.6398 24.3751 36.3067 23.7501 35.5295 23.2501L13.8789 9.37509C12.3245 8.37509 11.1032 9.12509 11.1032 11.1251V11.2501C11.1032 9.37509 12.3245 8.50009 13.8789 9.50009Z" fill="white"/>
</svg>
