<svg width="55" height="55" viewBox="0 0 55 55" fill="none" xmlns="http://www.w3.org/2000/svg">
<circle cx="27.5" cy="27.5" r="27.5" fill="url(#paint0_linear_1319_1282)"/>
<path d="M39.3636 40.9998H34.2727C33.9213 40.9998 33.6363 40.7149 33.6363 40.3635V40.2362C33.6363 39.2537 32.837 38.4544 31.8545 38.4544H22.6909C21.7084 38.4544 20.9091 39.2537 20.9091 40.2362V40.3635C20.9091 40.7149 20.6242 40.9998 20.2727 40.9998H15.1818C14.8303 40.9998 14.5454 40.7149 14.5454 40.3635V40.2362C14.5454 39.2537 13.7461 38.4544 12.7636 38.4544H12.6364C12.2849 38.4544 12 38.1694 12 37.818V35.2726C12 34.9212 12.2849 34.6362 12.6364 34.6362H22.1818C22.5333 34.6362 22.8182 34.9212 22.8182 35.2726C22.8182 35.624 22.5333 35.909 22.1818 35.909H13.2727V37.2241C14.5499 37.4393 15.5606 38.4499 15.7757 39.7271H19.6787C19.9218 38.2843 21.18 37.1817 22.6908 37.1817H31.8544C33.3653 37.1817 34.6235 38.2843 34.8665 39.7271H38.7696C38.9847 38.4499 39.9954 37.4393 41.2726 37.2241V35.909H32.3636C32.0122 35.909 31.7272 35.624 31.7272 35.2726C31.7272 34.9212 32.0122 34.6362 32.3636 34.6362H41.909C42.2604 34.6362 42.5454 34.9212 42.5454 35.2726V37.818C42.5454 38.1694 42.2604 38.4544 41.909 38.4544H41.7817C40.7993 38.4544 39.9999 39.2537 39.9999 40.2362V40.3635C39.9999 40.7149 39.715 40.9998 39.3636 40.9998Z" fill="white"/>
<path d="M26.635 35.2723C26.635 34.921 26.9201 34.636 27.2713 34.636C27.6226 34.636 27.9077 34.921 27.9077 35.2723C27.9077 35.6236 27.6226 35.9087 27.2713 35.9087C26.9201 35.9087 26.635 35.6236 26.635 35.2723ZM21.5441 35.2723C21.5441 34.921 21.8292 34.636 22.1804 34.636C22.5317 34.636 22.8168 34.921 22.8168 35.2723C22.8168 35.6236 22.5317 35.9087 22.1804 35.9087C21.8292 35.9087 21.5441 35.6236 21.5441 35.2723Z" fill="white"/>
<path d="M32.9976 35.9087C32.1385 35.9087 31.3048 35.7401 30.5202 35.4085C29.763 35.0878 29.082 34.629 28.4979 34.0448C27.9137 33.4606 27.4548 32.7797 27.1342 32.0218C26.8026 31.2378 26.634 30.4042 26.634 29.5451C26.634 28.6866 26.802 27.8543 27.1329 27.0702C27.453 26.313 27.9111 25.6333 28.4941 25.0491C29.0776 24.4649 29.7566 24.0055 30.5133 23.6848C31.2966 23.3526 32.129 23.1827 32.9868 23.1814H32.9881C33.3381 23.1814 33.6238 23.4665 33.6244 23.8165C33.6244 24.1678 33.34 24.4535 32.9887 24.4541C30.1862 24.4586 27.9062 26.7425 27.9068 29.545C27.9068 30.9042 28.4362 32.1827 29.3978 33.1449C30.3599 34.1059 31.6384 34.6353 32.9976 34.636C34.3568 34.6353 35.6353 34.1059 36.5975 33.1449C37.5584 32.1828 38.0885 30.9043 38.0885 29.5451V29.5336C38.0879 29.3637 38.1541 29.2034 38.2737 29.0831C38.394 28.9627 38.5536 28.896 38.7235 28.896H38.7249C39.0749 28.896 39.3606 29.1804 39.3612 29.5304V29.5451C39.3612 30.4042 39.1926 31.2378 38.8611 32.0218C38.5403 32.7797 38.0815 33.4606 37.4973 34.0448C36.9132 34.629 36.2322 35.0878 35.475 35.4085C34.6903 35.7401 33.8567 35.9087 32.9976 35.9087ZM37.0392 26.1234C36.8699 26.1234 36.7102 26.0578 36.5905 25.9382C36.4696 25.8179 36.4034 25.6588 36.4028 25.4883C36.4028 25.3184 36.4683 25.1586 36.5886 25.0384C36.7089 24.9175 36.8686 24.8506 37.0392 24.8506C37.2091 24.8506 37.3682 24.9168 37.4884 25.0365C37.6088 25.1561 37.6755 25.3158 37.6755 25.4857C37.6762 25.6563 37.61 25.816 37.4903 25.9363C37.3701 26.0572 37.2096 26.1234 37.0392 26.1234Z" fill="white"/>
<path d="M32.9952 33.3637C32.4797 33.3637 31.9795 33.2625 31.5086 33.0633C31.0543 32.8711 30.6457 32.5955 30.2951 32.245C29.9445 31.895 29.6696 31.4864 29.4774 31.0314C29.2782 30.5612 29.177 30.061 29.177 29.5455C29.177 29.0307 29.2775 28.5317 29.4761 28.0621C29.6676 27.6077 29.9418 27.1998 30.2913 26.8498C30.6406 26.4992 31.0479 26.2237 31.501 26.0308C31.9706 25.831 32.4689 25.7292 32.9831 25.7273H32.985C33.335 25.7273 33.6207 26.0117 33.6214 26.3617C33.622 26.5317 33.5564 26.692 33.4368 26.8123C33.3165 26.9326 33.1569 26.9994 32.987 27C31.5876 27.0038 30.4492 28.1455 30.4498 29.5455C30.4498 30.2245 30.7145 30.864 31.195 31.3451C31.6766 31.8256 32.3162 32.091 32.9952 32.091C33.6742 32.091 34.3137 31.8256 34.7948 31.3452C35.2753 30.864 35.54 30.2245 35.5406 29.5455C35.5406 29.5416 35.5406 29.5385 35.5406 29.5347C35.5393 29.184 35.8238 28.897 36.1744 28.8958H36.177C36.5263 28.8958 36.812 29.1803 36.8133 29.5296V29.5455C36.8133 30.061 36.7122 30.5612 36.513 31.0314C36.3207 31.4864 36.0452 31.895 35.6952 32.245C35.3446 32.5956 34.936 32.8712 34.481 33.0633C34.0108 33.2625 33.5106 33.3637 32.9952 33.3637ZM35.237 27.9241C35.0677 27.9241 34.908 27.8579 34.7884 27.7389C34.7884 27.7389 34.7877 27.7389 34.7877 27.7383C34.6675 27.6186 34.6007 27.4595 34.6007 27.2896C34.6 27.1197 34.6656 26.9594 34.7852 26.8391C34.9055 26.7175 35.0658 26.6514 35.2364 26.6514C35.4056 26.6514 35.5654 26.7169 35.685 26.8359C35.9338 27.0828 35.9357 27.4868 35.6882 27.7357C35.568 27.8573 35.4076 27.9241 35.237 27.9241Z" fill="white"/>
<path d="M32.9978 33.3643C31.5943 33.3643 30.4524 32.2224 30.4524 30.8189C30.4524 29.4181 31.5919 28.2762 32.9926 28.2734C32.993 28.2734 32.9935 28.2734 32.9939 28.2734C33.3448 28.2734 33.6296 28.5575 33.6303 28.9085C33.631 29.2599 33.3466 29.5455 32.9952 29.5462C32.2949 29.5476 31.7251 30.1185 31.7251 30.8189C31.7251 31.5207 32.2961 32.0916 32.9978 32.0916C33.3492 32.0916 33.6342 32.3766 33.6342 32.728C33.6342 33.0794 33.3492 33.3643 32.9978 33.3643Z" fill="white"/>
<path d="M21.5463 35.9092C20.6872 35.9092 19.8536 35.7406 19.0696 35.409C18.3117 35.0883 17.6308 34.6295 17.0466 34.0453C16.4624 33.4611 16.0036 32.7802 15.6829 32.0229C15.3513 31.2383 15.1827 30.4047 15.1827 29.5456C15.1827 28.6871 15.3507 27.8548 15.6822 27.0707C16.0017 26.3135 16.4599 25.6338 17.0428 25.0496C17.6263 24.4654 18.3053 24.006 19.0619 23.6852C19.8453 23.3531 20.6777 23.1838 21.5355 23.1819H21.5368C21.8868 23.1819 22.1725 23.467 22.1725 23.817C22.1731 23.9869 22.1069 24.1472 21.9873 24.2675C21.867 24.3878 21.7073 24.4546 21.5374 24.4546C18.7348 24.4591 16.4548 26.743 16.4554 29.5455C16.4554 30.9047 16.9855 32.1832 17.9464 33.1453C18.9086 34.1064 20.187 34.6365 21.5463 34.6365C22.9056 34.6365 24.184 34.1064 25.1462 33.1454C26.1071 32.1833 26.6366 30.9048 26.6372 29.5456C26.6372 29.5411 26.6372 29.5373 26.6372 29.534C26.6372 29.5334 26.6372 29.5334 26.6372 29.5328C26.6372 29.3635 26.7027 29.2038 26.8224 29.0835C26.9426 28.9632 27.1024 28.8964 27.2723 28.8958H27.2736C27.6236 28.8958 27.9093 29.1808 27.9099 29.5308V29.5456C27.9099 30.4047 27.7413 31.2383 27.4097 32.0229C27.089 32.7802 26.6302 33.4612 26.046 34.0453C25.4618 34.6295 24.7809 35.0883 24.023 35.409C23.239 35.7406 22.4054 35.9092 21.5463 35.9092ZM25.5878 26.1238C25.4186 26.1238 25.2588 26.0583 25.1386 25.9387C25.0183 25.8184 24.9521 25.6587 24.9515 25.4888C24.9515 25.3189 25.017 25.1591 25.1373 25.0389C25.2576 24.9179 25.4173 24.8511 25.5878 24.8511C25.7577 24.8511 25.9168 24.9173 26.0371 25.0369C26.0371 25.0369 26.0371 25.0369 26.0377 25.0376C26.2859 25.2851 26.2859 25.6886 26.039 25.9368C25.9187 26.0577 25.7584 26.1238 25.5878 26.1238Z" fill="white"/>
<path d="M21.5397 33.3637C21.0243 33.3637 20.5241 33.2625 20.0538 33.0633C19.5988 32.8711 19.1903 32.5955 18.8396 32.2455C18.489 31.8949 18.2141 31.4864 18.0219 31.0314C17.8227 30.5612 17.7216 30.061 17.7216 29.5455C17.7216 29.0307 17.8221 28.5317 18.0206 28.0621C18.2122 27.6077 18.4865 27.1998 18.8358 26.8498C19.1852 26.4992 19.5925 26.2237 20.0456 26.0308C20.5152 25.831 21.0135 25.7292 21.5276 25.7273H21.5302C21.8795 25.7273 22.1653 26.0117 22.1659 26.3617C22.1672 26.7124 21.8827 26.9987 21.5315 27C20.1321 27.0038 18.9936 28.1461 18.9943 29.5455C18.9943 30.2245 19.2596 30.864 19.7401 31.3451C20.2212 31.8256 20.8607 32.091 21.5397 32.091C22.2187 32.091 22.8583 31.8256 23.3394 31.3452C23.8198 30.864 24.0845 30.2245 24.0852 29.5455C24.0852 29.5416 24.0852 29.5379 24.0852 29.5347V29.534C24.0845 29.3641 24.1501 29.2044 24.2697 29.0842C24.3894 28.9633 24.5491 28.8964 24.719 28.8958H24.7215C25.0709 28.8958 25.356 29.1803 25.3579 29.5296V29.5455C25.3579 30.061 25.2567 30.5612 25.0575 31.0314C24.8654 31.4864 24.5898 31.895 24.2398 32.2456C23.8892 32.5956 23.4806 32.8712 23.0263 33.0634C22.5554 33.2625 22.0552 33.3637 21.5397 33.3637ZM23.7816 27.9241C23.6124 27.9241 23.4533 27.8579 23.333 27.7389C23.0842 27.492 23.0823 27.088 23.3298 26.8391C23.4501 26.7175 23.6105 26.6514 23.7816 26.6514C23.9503 26.6514 24.11 26.7169 24.2296 26.8359C24.3505 26.9555 24.4174 27.1153 24.418 27.2852C24.4186 27.4551 24.3531 27.6149 24.2328 27.7357C24.1125 27.8573 23.9522 27.9241 23.7816 27.9241Z" fill="white"/>
<path d="M21.5467 33.3643C20.1431 33.3643 19.0013 32.2224 19.0013 30.8189C19.0013 29.4181 20.1408 28.2762 21.5414 28.2734C21.5419 28.2734 21.5423 28.2734 21.5428 28.2734C21.8936 28.2734 22.1784 28.5575 22.1791 28.9085C22.1798 29.2599 21.8955 29.5455 21.544 29.5462C20.8437 29.5476 20.274 30.1185 20.274 30.8189C20.274 31.5207 20.8449 32.0916 21.5467 32.0916C21.8982 32.0916 22.1831 32.3766 22.1831 32.728C22.1831 33.0794 21.8982 33.3643 21.5467 33.3643Z" fill="white"/>
<path d="M27.2772 25.7272C26.4181 25.7272 25.5844 25.5586 24.7998 25.2271C24.0425 24.9063 23.3616 24.4475 22.7774 23.8633C22.1933 23.2792 21.7345 22.5982 21.4137 21.841C21.0822 21.0563 20.9135 20.2227 20.9135 19.3636C20.9135 18.5052 21.0815 17.6728 21.4131 16.8888C21.7325 16.1315 22.1907 15.4519 22.7736 14.8677C23.3572 14.2835 24.0362 13.8241 24.7928 13.5034C25.5762 13.1712 26.4085 13.0019 27.2663 13H27.2676C27.6176 13 27.9033 13.2851 27.904 13.6351C27.904 13.805 27.8378 13.9654 27.7182 14.0856C27.5979 14.2059 27.4382 14.2727 27.2683 14.2727C24.4657 14.2772 22.1856 16.5611 22.1863 19.3636C22.1863 20.7229 22.7164 22.0013 23.6773 22.9635C24.6394 23.9244 25.9179 24.4545 27.2772 24.4545C28.6364 24.4545 29.9149 23.9244 30.877 22.9635C31.838 22.0013 32.3674 20.7229 32.3681 19.3636C32.3681 19.3592 32.3681 19.356 32.3681 19.3522C32.3674 19.0009 32.6519 18.7152 33.0031 18.7139H33.0044C33.3544 18.7139 33.6401 18.999 33.6408 19.349V19.3636C33.6408 20.2227 33.4721 21.0563 33.1406 21.841C32.8199 22.5982 32.3611 23.2792 31.7769 23.8633C31.1927 24.4475 30.5118 24.9063 29.7545 25.2271C28.9699 25.5586 28.1363 25.7272 27.2772 25.7272ZM31.3187 15.9419C31.1494 15.9419 30.9897 15.8764 30.8694 15.7567C30.6212 15.5092 30.6206 15.1051 30.8681 14.8569C30.9884 14.736 31.1481 14.6692 31.3186 14.6692C31.4879 14.6692 31.6476 14.7354 31.7679 14.855C31.8882 14.9746 31.955 15.1344 31.955 15.3043C31.9556 15.4742 31.8894 15.6345 31.7698 15.7548C31.6496 15.8757 31.4892 15.9419 31.3187 15.9419Z" fill="white"/>
<path d="M27.2706 23.1818C26.7552 23.1818 26.255 23.0806 25.7841 22.8814C25.3297 22.6892 24.9212 22.4143 24.5705 22.0637C24.2199 21.713 23.945 21.3045 23.7528 20.8501C23.5536 20.3792 23.4525 19.879 23.4525 19.3636C23.4525 18.8494 23.553 18.3499 23.7515 17.8802C23.9431 17.4259 24.2174 17.018 24.5667 16.668C24.9161 16.3173 25.3234 16.0418 25.7764 15.849C26.2461 15.6491 26.7444 15.5473 27.2585 15.5454H27.2604C27.6104 15.5454 27.8962 15.8299 27.8968 16.1799C27.8974 16.3498 27.8318 16.5095 27.7123 16.6304C27.592 16.7507 27.4323 16.8175 27.2624 16.8181C25.863 16.822 24.7245 17.9642 24.7252 19.3636C24.7252 20.0426 24.9899 20.6821 25.471 21.1638C25.9521 21.6437 26.5916 21.909 27.2706 21.909C27.9496 21.909 28.5892 21.6437 29.0703 21.1638C29.5507 20.6821 29.8161 20.0426 29.8161 19.3636V19.3528C29.8154 19.1829 29.881 19.0231 30.0006 18.9022C30.1203 18.7813 30.28 18.7145 30.4499 18.7139H30.4524C30.8018 18.7139 31.0875 18.9983 31.0888 19.3477V19.3636C31.0888 19.879 30.9876 20.3792 30.7884 20.8501C30.5962 21.3045 30.3213 21.713 29.9706 22.0637C29.62 22.4143 29.2115 22.6892 28.7571 22.8814C28.2863 23.0806 27.7861 23.1818 27.2706 23.1818ZM29.5125 17.7421C29.3432 17.7421 29.1841 17.6766 29.0645 17.5576C29.0645 17.5576 29.0638 17.5576 29.0638 17.557C28.815 17.31 28.8132 16.906 29.0606 16.6571C29.1809 16.5356 29.3413 16.4688 29.5125 16.4688C29.6811 16.4688 29.8408 16.535 29.9605 16.654C29.9605 16.654 29.9612 16.654 29.9612 16.6546C30.2093 16.9015 30.2106 17.305 29.9636 17.5538C29.8434 17.6753 29.6831 17.7421 29.5125 17.7421Z" fill="white"/>
<path d="M27.2694 23.1824C25.8658 23.1824 24.7239 22.0406 24.7239 20.637C24.7239 19.2363 25.8635 18.0944 27.2641 18.0916C27.2645 18.0916 27.265 18.0916 27.2654 18.0916C27.6163 18.0916 27.901 18.3756 27.9017 18.7266C27.9025 19.078 27.6182 19.3635 27.2667 19.3643C26.5664 19.3657 25.9967 19.9367 25.9967 20.637C25.9967 21.3388 26.5676 21.9097 27.2694 21.9097C27.6208 21.9097 27.9057 22.1946 27.9057 22.5461C27.9057 22.8975 27.6208 23.1824 27.2694 23.1824Z" fill="white"/>
<defs>
<linearGradient id="paint0_linear_1319_1282" x1="17.5" y1="3" x2="31" y2="53.5" gradientUnits="userSpaceOnUse">
<stop stop-color="#E83EB4"/>
<stop offset="1" stop-color="#A210EC"/>
</linearGradient>
</defs>
</svg>
