<svg width="55" height="55" viewBox="0 0 55 55" fill="none" xmlns="http://www.w3.org/2000/svg">
<circle cx="27.5" cy="27.5" r="27.5" fill="url(#paint0_linear_1319_1124)"/>
<path d="M23.9508 13C23.2272 13 23.1745 13.8073 23.1745 13.8073L21.6364 31.9106C21.0128 31.3416 20.2076 30.9627 19.3032 30.8858C17.0856 30.6984 15.2001 32.3236 15.0136 34.5076C14.8579 36.3947 16.0546 38.0872 17.7903 38.6284C17.5417 39.2914 17.0323 39.6107 16.9941 39.633C16.6246 39.8468 16.4949 40.319 16.7055 40.6917C16.8486 40.9455 17.1129 41.0879 17.3847 41.0879C17.5144 41.0879 17.6466 41.0553 17.7676 40.9868C17.8247 40.9545 18.9997 40.2716 19.3711 38.7888C21.2359 38.5983 22.7615 37.0807 22.9237 35.1762C22.9237 35.1756 22.9244 35.175 22.9244 35.1744L23.9517 23.0793L24.9799 35.1744C25.1534 37.2129 26.8881 38.8105 28.9294 38.8105C29.0427 38.8105 29.1559 38.8055 29.2701 38.7959C30.325 38.7069 31.2825 38.211 31.9661 37.4009C32.6502 36.5902 32.9776 35.5622 32.8879 34.5067C32.7151 32.4682 30.9785 30.8718 28.9331 30.8718C28.823 30.8718 28.7119 30.8762 28.598 30.8858C27.6952 30.9627 26.8903 31.3416 26.2673 31.91L24.7283 13.807C24.7283 13.807 24.6746 13 23.9508 13ZM18.7655 37.2421C17.4437 37.1307 16.4576 35.9616 16.5675 34.6385C16.6754 33.3798 17.708 32.4309 18.9696 32.4309C19.0376 32.4309 19.1055 32.4334 19.1725 32.4393C20.4962 32.5519 21.4813 33.7198 21.3705 35.0422C21.3705 35.0422 21.3705 35.0422 21.3705 35.0428C21.2597 36.35 20.1027 37.3572 18.7655 37.2421ZM31.334 34.6379C31.3887 35.2783 31.1898 35.9026 30.7746 36.3947C30.3589 36.8868 29.7783 37.1881 29.1379 37.2424C29.0681 37.2479 28.9986 37.2507 28.93 37.2507C28.9294 37.2507 28.9294 37.2507 28.9294 37.2507C27.6914 37.2507 26.6393 36.2805 26.5338 35.0425V35.0419C26.423 33.7189 27.4081 32.5513 28.729 32.439C28.7976 32.4328 28.8658 32.4306 28.9331 32.4306C30.1749 32.4309 31.2292 33.3999 31.334 34.6379Z" fill="white"/>
<path d="M32.0506 28.1361C31.6202 28.1361 31.2712 28.4852 31.2712 28.9155C31.2712 29.3465 31.6202 29.6955 32.0506 29.6955H37.4391V40.3085C37.4391 40.7394 37.7882 41.0885 38.2192 41.0885C38.6495 41.0885 38.9986 40.7394 38.9986 40.3085V16.1269C38.9986 14.4542 37.6368 13.094 35.9625 13.094H32.0506C31.6202 13.094 31.2712 13.4431 31.2712 13.8734C31.2712 14.3044 31.6202 14.6534 32.0506 14.6534H35.9622C36.7767 14.6534 37.4391 15.3146 37.4391 16.1272V16.2085H32.0506C31.6202 16.2085 31.2712 16.5576 31.2712 16.9879C31.2712 17.4189 31.6202 17.768 32.0506 17.768H37.4391V19.1909H32.0506C31.6202 19.1909 31.2712 19.5399 31.2712 19.9703C31.2712 20.4013 31.6202 20.7503 32.0506 20.7503H37.4391V22.1732H32.0506C31.6202 22.1732 31.2712 22.5223 31.2712 22.9533C31.2712 23.3836 31.6202 23.7327 32.0506 23.7327H37.4391V25.1556H32.0506C31.6202 25.1556 31.2712 25.5047 31.2712 25.9356C31.2712 26.366 31.6202 26.715 32.0506 26.715H37.4391V28.1373H32.0506V28.1361Z" fill="white"/>
<defs>
<linearGradient id="paint0_linear_1319_1124" x1="17.5" y1="3" x2="31" y2="53.5" gradientUnits="userSpaceOnUse">
<stop stop-color="#25D0ED"/>
<stop offset="1" stop-color="#2376FA"/>
</linearGradient>
</defs>
</svg>
