<svg width="55" height="55" viewBox="0 0 55 55" fill="none" xmlns="http://www.w3.org/2000/svg">
<circle cx="27.5" cy="27.5" r="27.5" fill="url(#paint0_linear_1319_1295)"/>
<path d="M24.7665 34.8303C24.9721 34.8291 25.1717 34.7609 25.335 34.636C25.4983 34.511 25.6163 34.3363 25.6712 34.1381L28.5675 23.7245C28.6109 23.5677 28.622 23.4034 28.6001 23.2422C28.5783 23.0809 28.5239 22.9258 28.4403 22.7862C28.3582 22.6496 28.2492 22.5311 28.1199 22.4379C27.9907 22.3447 27.8438 22.2787 27.6883 22.2439L26.7773 22.0435C26.4853 21.9813 26.1805 22.0327 25.925 22.1871C25.6695 22.3416 25.4823 22.5875 25.4015 22.8749L23.8472 28.3704C23.8495 28.326 23.8552 28.2825 23.8558 28.2376L24.8043 23.7759C24.8113 23.7435 24.8147 23.7104 24.8147 23.6772C24.8119 23.1088 24.5838 22.5648 24.1804 22.1644C23.777 21.764 23.2312 21.54 22.6628 21.5415H20.7461C20.1876 21.5402 19.6506 21.7564 19.249 22.1445C18.8474 22.5325 18.6127 23.0618 18.5949 23.62L18.2533 25.1064L15.7697 24.9087C15.5234 24.8848 15.2774 24.9585 15.0848 25.1139C14.8921 25.2693 14.768 25.4941 14.7392 25.7399L14.6727 26.2903C14.6574 26.4166 14.6677 26.5447 14.703 26.667C14.7382 26.7892 14.7977 26.9032 14.8778 27.002C14.958 27.1008 15.0572 27.1824 15.1696 27.2421C15.282 27.3018 15.4052 27.3383 15.532 27.3493L17.246 27.4898L14.6145 27.8622C14.3309 27.9007 14.0655 28.0239 13.853 28.2157C13.6405 28.4075 13.4909 28.659 13.4236 28.9372L12.0274 34.6755C11.9706 34.906 12.0028 35.1495 12.1174 35.3573C12.2321 35.5652 12.4209 35.7222 12.6461 35.7972L13.5789 36.1142C13.6795 36.1485 13.785 36.1662 13.8913 36.1663C14.0849 36.1664 14.274 36.1073 14.433 35.9968C14.592 35.8863 14.7135 35.7298 14.7809 35.5483L16.0921 32.056C16.1274 31.9643 16.1897 31.8856 16.2707 31.8302C16.3517 31.7747 16.4477 31.7452 16.5458 31.7454H16.5977C16.4957 31.8341 16.4138 31.9435 16.3576 32.0664C16.3015 32.1894 16.2722 32.3229 16.2719 32.458V33.8814C16.271 34.1317 16.3694 34.3722 16.5456 34.5502C16.7217 34.7281 16.9613 34.8288 17.2116 34.8303H19.5941V37.3928L17.664 38.1433C17.1828 38.3282 16.7692 38.6551 16.4781 39.0806C16.1871 39.5061 16.0324 40.01 16.0346 40.5256C16.0346 40.6514 16.0846 40.7721 16.1736 40.8611C16.2626 40.9501 16.3834 41.0001 16.5092 41.0002H25.052C25.1779 41.0001 25.2987 40.95 25.3877 40.861C25.4767 40.772 25.5266 40.6512 25.5266 40.5253C25.5288 40.0098 25.3741 39.5059 25.083 39.0804C24.7919 38.6549 24.3783 38.3281 23.8971 38.1433L21.9671 37.3928V34.8303H24.7665ZM15.2034 31.7225L13.8845 35.2155L12.9497 34.8999L14.3459 29.1615C14.3689 29.0682 14.4195 28.9839 14.4912 28.9198C14.5628 28.8556 14.6522 28.8146 14.7475 28.8021L18.177 28.3166C18.2721 28.3032 18.3608 28.2612 18.4315 28.1963C18.5022 28.1314 18.5516 28.0466 18.5731 27.953L18.6531 27.6051L19.285 27.6569C19.3293 27.661 19.3735 27.6631 19.4178 27.6631C19.6504 27.6631 19.8794 27.6061 20.0848 27.4971C20.2903 27.3881 20.4659 27.2304 20.5964 27.0379L22.2248 24.6341C22.2598 24.5824 22.2843 24.5245 22.2968 24.4634C22.3094 24.4023 22.3098 24.3394 22.298 24.2782C22.2862 24.2169 22.2625 24.1586 22.2282 24.1066C22.1939 24.0545 22.1497 24.0097 22.0981 23.9748C22.0465 23.9398 21.9885 23.9153 21.9274 23.9028C21.8663 23.8902 21.8034 23.8898 21.7422 23.9016C21.6809 23.9134 21.6226 23.9371 21.5706 23.9714C21.5185 24.0057 21.4737 24.0499 21.4388 24.1015L19.8103 26.5056C19.7621 26.5767 19.6954 26.6334 19.6175 26.6697C19.5395 26.7059 19.4532 26.7203 19.3677 26.7114L15.6149 26.4041L15.6879 25.8544L18.8991 26.11C19.0678 26.1257 19.2376 26.096 19.391 26.0239C19.5443 25.9519 19.6756 25.8402 19.7712 25.7003L21.0467 23.8334C21.0819 23.782 21.1067 23.7241 21.1195 23.663C21.1324 23.602 21.1331 23.539 21.1216 23.4777C21.1101 23.4164 21.0866 23.358 21.0525 23.3057C21.0184 23.2535 20.9743 23.2085 20.9228 23.1734C20.8713 23.1382 20.8134 23.1135 20.7523 23.1007C20.6913 23.0879 20.6283 23.0873 20.567 23.0989C20.5057 23.1105 20.4473 23.1341 20.3951 23.1682C20.343 23.2024 20.298 23.2465 20.2629 23.2981L19.3312 24.6544L19.5313 23.7836C19.5394 23.7487 19.5434 23.713 19.5434 23.6772C19.5459 23.3605 19.6739 23.0577 19.8994 22.8353C20.1249 22.6129 20.4294 22.4889 20.7461 22.4907H22.6628C22.9716 22.4891 23.2691 22.6069 23.4931 22.8195C23.717 23.0321 23.8502 23.3231 23.8646 23.6316L22.9175 28.0872C22.9106 28.1197 22.9071 28.1527 22.9071 28.1859C22.9023 28.8819 22.6216 29.5476 22.1267 30.037C21.6317 30.5263 20.9629 30.7994 20.2669 30.7962H16.5458C16.2546 30.7966 15.9704 30.8853 15.7307 31.0507C15.491 31.2161 15.3071 31.4504 15.2034 31.7225ZM23.4186 29.8855L22.9594 31.5091H21.543C22.3409 31.2074 23.0057 30.632 23.4186 29.8855ZM17.2116 32.4583H22.9594C23.1641 32.457 23.3629 32.3893 23.5258 32.2652C23.6886 32.1412 23.8068 31.9677 23.8625 31.7707L26.3146 23.134C26.3282 23.0786 26.3628 23.0307 26.411 23.0002C26.4592 22.9697 26.5173 22.959 26.5732 22.9704L27.4844 23.1709C27.514 23.1776 27.5419 23.1904 27.5665 23.2084C27.591 23.2263 27.6115 23.2491 27.6269 23.2754C27.6444 23.3043 27.6558 23.3365 27.6603 23.37C27.6648 23.4035 27.6623 23.4375 27.6531 23.47L24.7665 33.8811L21.4935 33.8812L21.4925 33.8811H20.0687L20.0673 33.8813L17.2211 33.8814L17.2116 32.4583ZM24.507 40.0509L17.0543 40.0507C17.1252 39.819 17.2479 39.6065 17.4132 39.4293C17.5785 39.2521 17.7819 39.1149 18.0081 39.028L20.1983 38.1764C20.5728 38.0304 20.9885 38.0304 21.363 38.1764L23.5529 39.028C23.7792 39.1149 23.9827 39.2522 24.148 39.4294C24.3133 39.6066 24.4361 39.8192 24.507 40.0509ZM21.0179 37.1287C20.8601 37.1139 20.7012 37.1139 20.5433 37.1287V34.8303H21.0179V37.1287Z" fill="white"/>
<path d="M40.0022 15.8459C40.0022 15.3296 39.8491 14.825 39.5623 14.3957C39.2754 13.9664 38.8678 13.6319 38.3908 13.4343C37.9138 13.2367 37.389 13.185 36.8826 13.2858C36.3763 13.3865 35.9112 13.6351 35.5461 14.0001C35.181 14.3652 34.9324 14.8303 34.8317 15.3367C34.731 15.843 34.7827 16.3679 34.9803 16.8448C35.1778 17.3218 35.5124 17.7295 35.9417 18.0163C36.3709 18.3031 36.8756 18.4562 37.3919 18.4562C38.0839 18.4554 38.7474 18.1802 39.2368 17.6908C39.7261 17.2014 40.0014 16.538 40.0022 15.8459ZM35.7308 15.8459C35.7308 15.5174 35.8282 15.1962 36.0107 14.923C36.1932 14.6499 36.4527 14.437 36.7562 14.3112C37.0597 14.1855 37.3937 14.1526 37.7159 14.2167C38.0381 14.2808 38.3341 14.439 38.5664 14.6713C38.7987 14.9036 38.957 15.1996 39.021 15.5218C39.0851 15.8441 39.0522 16.1781 38.9265 16.4816C38.8008 16.7851 38.5879 17.0445 38.3147 17.2271C38.0416 17.4096 37.7204 17.507 37.3919 17.507C36.9515 17.5065 36.5293 17.3313 36.2179 17.0199C35.9065 16.7085 35.7313 16.2863 35.7308 15.8459Z" fill="white"/>
<path d="M32.5185 16.4623L31.5266 13.3299C31.5245 13.3233 31.5208 13.3176 31.5185 13.3111C31.5159 13.3041 31.5149 13.2968 31.512 13.2898C31.5084 13.2813 31.5031 13.2743 31.4991 13.2661C31.4921 13.2515 31.4843 13.2372 31.4759 13.2234C31.4678 13.2104 31.4592 13.1982 31.4501 13.1863C31.4404 13.1734 31.43 13.161 31.4189 13.1492C31.409 13.1386 31.3987 13.1288 31.3879 13.1193C31.3756 13.1083 31.3627 13.098 31.3493 13.0883C31.3383 13.0805 31.3272 13.0733 31.3156 13.0665C31.3007 13.0575 31.2852 13.0494 31.2694 13.0422C31.2581 13.0371 31.2468 13.0326 31.2351 13.0284C31.218 13.0221 31.2005 13.0168 31.1827 13.0126C31.171 13.0098 31.1593 13.0077 31.1474 13.0058C31.1294 13.0029 31.1113 13.0011 31.0932 13.0003C31.08 12.9997 31.0669 13 31.0536 13.0006C31.0367 13.0013 31.0199 13.0029 31.0031 13.0054C30.9875 13.008 30.972 13.0113 30.9567 13.0153C30.9481 13.0176 30.9395 13.0181 30.931 13.0208C30.9244 13.0229 30.9187 13.0265 30.9122 13.0289C30.9052 13.0315 30.8979 13.0325 30.891 13.0354L30.0884 13.3714C30.0308 13.3954 29.9785 13.4305 29.9345 13.4747C29.8905 13.519 29.8556 13.5714 29.8319 13.6292C29.8082 13.6869 29.7961 13.7487 29.7963 13.8111C29.7965 13.8735 29.809 13.9353 29.8331 13.9928C29.8572 14.0504 29.8925 14.1026 29.9368 14.1466C29.9811 14.1905 30.0336 14.2253 30.0914 14.2489C30.1492 14.2725 30.211 14.2844 30.2734 14.2841C30.3358 14.2838 30.3975 14.2711 30.4551 14.2469L30.7787 14.1114L30.8563 14.3565L30.4537 14.525C30.3961 14.549 30.3438 14.5841 30.2997 14.6283C30.2557 14.6726 30.2209 14.7251 30.1971 14.7828C30.1734 14.8405 30.1613 14.9023 30.1615 14.9647C30.1618 15.0271 30.1743 15.0889 30.1984 15.1464C30.2225 15.204 30.2577 15.2562 30.302 15.3002C30.3463 15.3441 30.3989 15.3789 30.4566 15.4025C30.5144 15.4261 30.5762 15.438 30.6386 15.4377C30.701 15.4374 30.7628 15.4247 30.8203 15.4005L31.144 15.265L31.2216 15.51L30.8189 15.6786C30.7613 15.7026 30.709 15.7377 30.665 15.7819C30.6209 15.8262 30.5861 15.8786 30.5624 15.9364C30.5387 15.9941 30.5266 16.0559 30.5268 16.1183C30.527 16.1807 30.5395 16.2425 30.5636 16.3C30.5877 16.3576 30.6229 16.4098 30.6672 16.4538C30.7115 16.4977 30.7641 16.5324 30.8219 16.556C30.8796 16.5796 30.9415 16.5916 31.0039 16.5913C31.0663 16.591 31.128 16.5783 31.1855 16.5541L31.5093 16.4186L31.5869 16.6637L31.1843 16.8322C31.1144 16.8608 31.0524 16.9058 31.0035 16.9635C30.9547 17.0211 30.9204 17.0896 30.9036 17.1633C30.8868 17.237 30.888 17.3136 30.9071 17.3867C30.9262 17.4598 30.9626 17.5273 31.0132 17.5833C30.9751 17.6735 30.9514 17.7691 30.9429 17.8666C30.1848 17.4923 29.1832 17.5556 28.3201 17.6127C27.9072 17.6509 27.4923 17.6603 27.0782 17.641C26.1827 17.5661 25.6286 17.1726 25.0421 16.7562C24.2127 16.1672 23.2781 15.5059 21.5003 16.0786C21.1041 16.1883 20.7395 16.3901 20.4362 16.6675C20.1329 16.9449 19.8994 17.2901 19.7548 17.6749C19.6102 18.0597 19.5587 18.4732 19.6043 18.8817C19.65 19.2902 19.7915 19.6822 20.0174 20.0256C20.2434 20.369 20.5472 20.6541 20.9043 20.8578C21.2614 21.0614 21.6616 21.1777 22.0722 21.1973C22.4827 21.2169 22.8921 21.1391 23.267 20.9704C23.6418 20.8016 23.9714 20.5467 24.229 20.2263C24.7979 20.516 25.3942 20.7482 26.0092 20.9196C27.3794 21.3537 28.6737 21.7636 29.1082 23.1109C29.1277 23.1713 29.1591 23.2271 29.2006 23.2752C29.2421 23.3232 29.2927 23.3624 29.3496 23.3906C29.4065 23.4187 29.4684 23.4351 29.5317 23.4389C29.5951 23.4427 29.6585 23.4338 29.7184 23.4127C30.7781 23.0373 30.8409 21.9991 30.8914 21.165C30.9454 20.2735 31.0091 19.7132 31.6124 19.4432C31.6734 19.4158 31.7278 19.3757 31.7721 19.3255C31.8165 19.2754 31.8496 19.2165 31.8694 19.1525L34.3332 21.1682L34.0185 22.4913L31.5931 22.2982C31.3466 22.274 31.1005 22.3476 30.9077 22.5031C30.7149 22.6586 30.591 22.8837 30.5626 23.1297L30.4963 23.6794C30.481 23.8058 30.4912 23.9339 30.5264 24.0562C30.5616 24.1785 30.6211 24.2925 30.7013 24.3914C30.7814 24.4902 30.8807 24.5719 30.9931 24.6317C31.1055 24.6914 31.2288 24.7278 31.3556 24.7389L33.4433 24.91L32.4283 29.1776C32.4264 29.1853 32.4248 29.1932 32.4232 29.201C32.398 29.3371 32.4031 29.477 32.4381 29.6109C32.4732 29.7448 32.5373 29.8693 32.626 29.9755C32.7164 30.0841 32.8297 30.1715 32.9578 30.2313C33.0858 30.2911 33.2255 30.3219 33.3668 30.3215H33.9129L33.1919 32.2004C33.1299 32.3617 33.0979 32.5329 33.0973 32.7056L33.0853 36.1604C33.0851 36.4007 33.1758 36.6322 33.3391 36.8084C33.5024 36.9847 33.7263 37.0927 33.9659 37.1108L34.9445 37.1819C34.9679 37.1835 34.9913 37.1844 35.0147 37.1844C35.2542 37.1841 35.4847 37.0932 35.66 36.93C35.8353 36.7668 35.9425 36.5434 35.96 36.3045L36.2117 32.8699V32.8676C36.2138 32.8364 36.219 32.8055 36.2272 32.7754L37.3544 30.3215H37.6584L37.8508 36.2848C37.8578 36.5314 37.9609 36.7655 38.1382 36.9371C38.3155 37.1087 38.5528 37.2042 38.7995 37.2032H39.7788C40.0256 37.2042 40.2629 37.1087 40.4402 36.937C40.6174 36.7654 40.7206 36.5312 40.7276 36.2846L40.9199 30.3215H41.4147C41.556 30.3219 41.6957 30.2911 41.8238 30.2313C41.9518 30.1715 42.0651 30.0841 42.1555 29.9755C42.2442 29.8693 42.3083 29.7448 42.3434 29.6109C42.3784 29.477 42.3835 29.3371 42.3583 29.201C42.3567 29.1932 42.3551 29.1853 42.3532 29.1776L40.1909 20.0856C40.1251 19.7586 39.9477 19.4646 39.6891 19.254C39.4304 19.0434 39.1066 18.9292 38.7731 18.9311H36.0084C35.9216 18.9312 35.835 18.939 35.7495 18.9544L32.9395 16.6554C32.8175 16.557 32.6727 16.4906 32.5185 16.4623ZM22.2035 20.2511C21.8698 20.2519 21.5435 20.1518 21.2676 19.9641C20.9916 19.7764 20.7787 19.5098 20.6568 19.199C20.535 18.8883 20.5098 18.548 20.5845 18.2228C20.6593 17.8975 20.8305 17.6023 21.0758 17.376C21.4386 18.1694 22.1512 18.7065 23.2665 19.5454C23.3258 19.59 23.3881 19.6369 23.45 19.6835C23.2948 19.8617 23.1033 20.0045 22.8883 20.1024C22.6733 20.2003 22.4398 20.251 22.2035 20.2511ZM29.9438 21.1076C29.9513 21.4859 29.8871 21.8622 29.7545 22.2167C29.0278 20.88 27.5861 20.4235 26.2958 20.0147C25.5549 19.7802 24.8551 19.5584 24.3846 19.2004C24.1909 19.053 24.0085 18.9158 23.837 18.7867C22.7708 17.9849 22.1864 17.5453 21.9224 16.9397C23.1513 16.5778 23.7256 16.9854 24.4924 17.53C25.1264 17.9803 25.8448 18.4903 26.9989 18.5869C27.4602 18.6112 27.9226 18.6022 28.3826 18.5598C29.4912 18.4864 30.3058 18.4706 30.7463 18.8694C30.0444 19.4481 29.9895 20.3551 29.9438 21.1076ZM31.8879 17.9413L32.3386 17.3902L34.8813 19.4704C34.7355 19.6486 34.6357 19.8598 34.5907 20.0856L34.5774 20.1415L31.8879 17.9413ZM35.3512 32.4085C35.3435 32.4253 35.3368 32.4425 35.331 32.46C35.2951 32.5706 35.2729 32.6853 35.2648 32.8013L35.0131 36.235L34.0345 36.1639L34.0465 32.7091C34.0467 32.6515 34.0574 32.5944 34.078 32.5406L34.9295 30.3215H36.3098L35.3512 32.4085ZM39.7793 36.254H38.7995L38.6081 30.3215H39.9702L39.7793 36.254ZM39.26 20.2715C39.2616 20.2793 39.2632 20.2872 39.2651 20.2949L41.4235 29.3704C41.4208 29.3719 41.4177 29.3725 41.4147 29.3723L33.3571 29.3739L34.4002 24.9884L35.1084 25.0464C35.1526 25.0506 35.1969 25.0527 35.2409 25.0527C35.4736 25.0526 35.7027 24.9956 35.9082 24.8866C36.1137 24.7777 36.2894 24.62 36.42 24.4275L38.0484 22.0236C38.1191 21.9194 38.1454 21.7914 38.1216 21.6677C38.0978 21.5441 38.0259 21.435 37.9217 21.3643C37.8174 21.2937 37.6894 21.2674 37.5658 21.2912C37.4421 21.3149 37.333 21.3869 37.2624 21.4911L35.6342 23.8949C35.5857 23.966 35.5189 24.0226 35.441 24.0589C35.363 24.0951 35.2766 24.1097 35.1911 24.1009L31.4385 23.7934L31.5113 23.244L34.7227 23.4996C34.8914 23.5153 35.0612 23.4855 35.2145 23.4135C35.3678 23.3415 35.499 23.2297 35.5945 23.0899L36.8703 21.223C36.9055 21.1715 36.9303 21.1136 36.9431 21.0526C36.956 20.9915 36.9567 20.9286 36.9452 20.8673C36.9337 20.806 36.9102 20.7475 36.8761 20.6953C36.842 20.6431 36.7979 20.5981 36.7464 20.5629C36.6949 20.5277 36.637 20.5031 36.5759 20.4903C36.5149 20.4775 36.4519 20.4769 36.3906 20.4885C36.3293 20.5001 36.2709 20.5236 36.2188 20.5578C36.1666 20.592 36.1216 20.6361 36.0865 20.6877L35.0716 22.165L35.5165 20.2949C35.5183 20.2872 35.5199 20.2794 35.5216 20.2715C35.5443 20.1597 35.6054 20.0594 35.6943 19.9879C35.7833 19.9165 35.8944 19.8784 36.0084 19.8803H38.7731C38.8871 19.8784 38.9983 19.9165 39.0872 19.9879C39.1761 20.0594 39.2372 20.1597 39.26 20.2715Z" fill="white"/>
<defs>
<linearGradient id="paint0_linear_1319_1295" x1="17.5" y1="3" x2="31" y2="53.5" gradientUnits="userSpaceOnUse">
<stop stop-color="#A0D026"/>
<stop offset="1" stop-color="#68EE67"/>
</linearGradient>
</defs>
</svg>
