<svg width="55" height="55" viewBox="0 0 55 55" fill="none" xmlns="http://www.w3.org/2000/svg">
<circle cx="27.5" cy="27.5" r="27.5" fill="url(#paint0_linear_1319_1151)"/>
<path d="M32.9126 28.0605L32.1198 27.6895C32.724 26.4041 33.3614 25.25 34.5615 25.25V26.125C33.9403 26.125 33.4861 26.8346 32.9126 28.0605Z" fill="white"/>
<path d="M32.1089 29.8133L31.3214 29.4362C31.4632 29.1396 31.5957 28.8491 31.7226 28.5691L32.5193 28.9305C32.388 29.2153 32.2528 29.511 32.1089 29.8133Z" fill="white"/>
<path d="M26.6871 35.7502H25.8121L22.4936 35.4995C22.4678 35.4975 22.4422 35.4932 22.4171 35.4868C22.0171 35.3789 21.6549 35.162 21.3711 34.8602C21.0873 34.5585 20.8929 34.1838 20.8097 33.7779L20.6172 33.2831L21.4323 32.9655L21.6388 33.4957C21.6486 33.5205 21.6561 33.5461 21.6611 33.5723C21.7053 33.818 21.8164 34.0468 21.9823 34.2333C22.1482 34.4199 22.3624 34.5571 22.6013 34.6297L25.8453 34.8752H26.5794C28.4496 33.8246 29.9529 32.2263 30.8871 30.2954L31.6601 30.7049C30.6309 32.8287 28.9615 34.5762 26.887 35.7016C26.8252 35.7335 26.7566 35.7501 26.6871 35.7502Z" fill="white"/>
<path d="M20.1287 28.341L19.2537 28.285C19.2764 27.7153 19.5144 27.1755 19.9197 26.7746C20.325 26.3737 20.8674 26.1416 21.4372 26.125H24.1602L24.5054 24.7784C24.5191 24.4501 24.6512 24.1379 24.8773 23.8995C24.9981 23.772 25.1438 23.6707 25.3054 23.602C25.467 23.5333 25.641 23.4986 25.8166 23.5C26.0043 23.5 26.2878 23.5 28.2189 25.0729C28.7877 25.4923 29.4808 25.7087 30.1872 25.6875H31.2911C31.7561 25.6876 32.2194 25.7447 32.6705 25.8577C32.6908 25.8626 32.7107 25.8691 32.73 25.877L33.4156 26.1574L33.0839 26.9677L32.4277 26.699C32.0554 26.6081 31.6735 26.5623 31.2902 26.5625H30.1872C29.2791 26.5875 28.3896 26.3013 27.6664 25.7514C27.0885 25.2264 26.4559 24.765 25.7794 24.375C25.6781 24.3821 25.583 24.4265 25.5125 24.4997C25.4268 24.5911 25.3798 24.7122 25.3813 24.8375C25.3812 24.8741 25.3766 24.9105 25.3677 24.946L24.9259 26.6697C24.9019 26.7645 24.847 26.8485 24.7697 26.9083C24.6925 26.9682 24.5974 27.0005 24.4997 27H21.4372C21.0914 27.0207 20.7657 27.1696 20.5237 27.4175C20.2817 27.6655 20.1409 27.9947 20.1287 28.341Z" fill="white"/>
<path d="M17.8758 41H14.4375C14.3215 41 14.2102 40.9539 14.1281 40.8718C14.0461 40.7898 14 40.6785 14 40.5625V32.2499C13.9997 32.1391 14.0415 32.0323 14.117 31.9511C14.1924 31.8699 14.2959 31.8203 14.4064 31.8124L19.6564 31.4375L19.719 32.3099L14.875 32.6573V40.125H17.8758C18.0922 40.1256 18.3055 40.0725 18.4963 39.9705C18.6872 39.8685 18.8498 39.7207 18.9696 39.5405L20.2003 37.6946C20.255 37.6125 20.336 37.5512 20.4299 37.5209C20.5239 37.4905 20.6254 37.4929 20.7178 37.5275L24.2178 38.84L23.9116 39.6599L20.7366 38.469L19.6963 40.0256C19.4969 40.3257 19.2262 40.5718 18.9086 40.7418C18.5909 40.9118 18.2361 41.0005 17.8758 41Z" fill="white"/>
<path d="M33.25 41H27.125C24.1115 41 22.3125 38.7106 22.3125 34.875H23.1875C23.1875 36.4535 23.5712 40.125 27.125 40.125H33.25C34.8739 40.1233 36.4309 39.4774 37.5791 38.3291C38.7274 37.1808 39.3733 35.6239 39.375 34V32.25C39.375 27.9568 37.9357 26.125 34.5625 26.125V25.25C38.4427 25.25 40.25 27.4743 40.25 32.25V34C40.2478 35.8559 39.5096 37.6351 38.1973 38.9473C36.8851 40.2596 35.1059 40.9978 33.25 41Z" fill="white"/>
<path d="M23.1875 37.9375V37.0625C24.5529 37.0625 25.1904 36.3345 25.8654 35.5632C26.0361 35.3685 26.2036 35.1773 26.3782 35.0032L26.9968 35.6218C26.8358 35.7828 26.6814 35.9596 26.5234 36.1398C25.8221 36.9409 24.9498 37.9375 23.1875 37.9375Z" fill="white"/>
<path d="M31.3688 37.9148L30.7563 37.2909C33.4137 34.676 35 30.3381 35 25.6875H35.875C35.875 30.5674 34.1907 35.1375 31.3688 37.9148Z" fill="white"/>
<path d="M25.375 40.5623V39.6873C27.0317 39.6607 28.6311 39.0769 29.9154 38.03L30.4539 38.7195C29.0163 39.8874 27.227 40.5366 25.375 40.5623Z" fill="white"/>
<path d="M29.3125 41V40.125C33.1721 40.125 36.3125 33.8447 36.3125 26.125H37.1875C37.1875 34.466 33.7282 41 29.3125 41Z" fill="white"/>
<path d="M21 37.9375H20.125C20.125 36.3231 18.6375 34.4375 14.4375 34.4375V33.5625C19.2815 33.5625 21 35.9193 21 37.9375Z" fill="white"/>
<path d="M24.1362 32.6876C23.5468 32.6955 22.9783 32.4698 22.5548 32.06C22.1313 31.6501 21.8871 31.0894 21.8756 30.5001C21.8682 30.1534 21.931 29.8087 22.0603 29.4869C22.1896 29.165 22.3827 28.8727 22.628 28.6275C22.8732 28.3822 23.1655 28.1891 23.4874 28.0598C23.8092 27.9305 24.1538 27.8677 24.5006 27.8751C26.3044 27.8751 27.1256 29.4628 27.1256 30.9376C27.1256 31.0536 27.0795 31.1649 26.9975 31.247C26.9154 31.329 26.8041 31.3751 26.6881 31.3751H25.7895C25.7151 31.9303 25.408 32.6876 24.1362 32.6876ZM24.5006 28.7501C24.2687 28.7424 24.0377 28.7823 23.8218 28.8675C23.606 28.9527 23.41 29.0814 23.2459 29.2454C23.0819 29.4095 22.9532 29.6055 22.868 29.8214C22.7828 30.0372 22.7428 30.2682 22.7506 30.5001C22.754 30.6777 22.7927 30.8528 22.8645 31.0153C22.9363 31.1777 23.0396 31.3243 23.1686 31.4465C23.2975 31.5686 23.4495 31.6639 23.6156 31.7267C23.7817 31.7896 23.9586 31.8188 24.1362 31.8126C24.8222 31.8126 24.9381 31.5939 24.9381 30.9376C24.9381 30.5412 24.743 30.0626 24.5006 30.0626C24.3937 30.0775 24.2941 30.1254 24.2156 30.1996C24.1372 30.2738 24.0839 30.3706 24.0631 30.4765C24.208 30.497 24.3543 30.5049 24.5006 30.5001V31.3751C24.0745 31.3751 23.1881 31.3751 23.1881 30.5001C23.205 30.1575 23.3488 29.8334 23.5913 29.5908C23.8339 29.3483 24.158 29.2045 24.5006 29.1876C25.1822 29.1876 25.6381 29.8001 25.7693 30.5001H26.2191C26.0931 29.573 25.5467 28.7501 24.5006 28.7501Z" fill="white"/>
<path d="M27.3438 32.6875H24.0625V31.8125H27.3438C27.4018 31.8125 27.4574 31.7895 27.4984 31.7484C27.5395 31.7074 27.5625 31.6518 27.5625 31.5938C27.5625 31.5357 27.5395 31.4801 27.4984 31.4391C27.4574 31.398 27.4018 31.375 27.3438 31.375H26.6875V30.5H27.3438C27.6338 30.5 27.912 30.6152 28.1172 30.8204C28.3223 31.0255 28.4375 31.3037 28.4375 31.5938C28.4375 31.8838 28.3223 32.162 28.1172 32.3672C27.912 32.5723 27.6338 32.6875 27.3438 32.6875Z" fill="white"/>
<path d="M24.5 32.6875H21.875C21.2951 32.6868 20.7391 32.4561 20.329 32.046C19.9189 31.6359 19.6882 31.08 19.6875 30.5V29.4063C19.6875 29.1162 19.8027 28.838 20.0079 28.6329C20.213 28.4277 20.4912 28.3125 20.7813 28.3125C21.0713 28.3125 21.3495 28.4277 21.5547 28.6329C21.7598 28.838 21.875 29.1162 21.875 29.4063V30.0669C21.9428 30.0721 22.0456 30.0669 22.1204 30.0669C22.1834 30.0669 22.2482 30.0629 22.3125 30.0629V30.9379C22.2574 30.9379 22.2018 30.9379 22.1471 30.9414C21.9884 30.9673 21.826 30.9601 21.6702 30.9203C21.5143 30.8804 21.3684 30.8089 21.2415 30.71C21.1588 30.6245 21.0946 30.5229 21.0531 30.4115C21.0115 30.3001 20.9935 30.1812 21 30.0625V29.4063C21 29.3482 20.977 29.2926 20.9359 29.2516C20.8949 29.2105 20.8393 29.1875 20.7813 29.1875C20.7232 29.1875 20.6676 29.2105 20.6266 29.2516C20.5855 29.2926 20.5625 29.3482 20.5625 29.4063V30.5C20.5625 30.8481 20.7008 31.1819 20.9469 31.4281C21.1931 31.6742 21.5269 31.8125 21.875 31.8125H24.5V32.6875Z" fill="white"/>
<path d="M27.125 23.5C26.4293 23.4985 25.7625 23.2215 25.2705 22.7295C24.7785 22.2375 24.5015 21.5707 24.5 20.875C24.5 19.1823 25.5876 18.25 27.5625 18.25C29.3943 18.25 30.625 19.6566 30.625 21.75C30.625 21.866 30.5789 21.9773 30.4969 22.0594C30.4148 22.1414 30.3035 22.1875 30.1875 22.1875H29.1686C29.0226 22.6025 28.7424 22.957 28.3722 23.1947C28.002 23.4325 27.5631 23.5399 27.125 23.5ZM27.5625 19.125C25.6016 19.125 25.375 20.1238 25.375 20.875C25.3727 21.1055 25.4164 21.334 25.5036 21.5474C25.5907 21.7607 25.7195 21.9546 25.8825 22.1175C26.0454 22.2805 26.2393 22.4093 26.4526 22.4964C26.666 22.5836 26.8946 22.6273 27.125 22.625C27.3026 22.6471 27.483 22.6283 27.6523 22.5702C27.8216 22.512 27.9753 22.416 28.1019 22.2894C28.2285 22.1628 28.3245 22.0091 28.3827 21.8398C28.4408 21.6705 28.4596 21.4901 28.4375 21.3125C28.4289 21.0832 28.334 20.8656 28.1717 20.7033C28.0095 20.541 27.7918 20.4461 27.5625 20.4375C26.7553 20.4375 26.6875 20.5443 26.6875 20.875C26.6875 21.1813 26.8091 21.3125 27.5625 21.3125V22.1875C27.1298 22.1875 25.8125 22.1875 25.8125 20.875C25.8125 19.5625 27.0375 19.5625 27.5625 19.5625C28.0247 19.5686 28.4663 19.755 28.7932 20.0818C29.1201 20.4087 29.3064 20.8503 29.3125 21.3125H29.7268C29.6048 20.1881 28.9905 19.125 27.5625 19.125Z" fill="white"/>
<path d="M31.2813 23.5H27.125V22.625H31.2813C31.3393 22.625 31.3949 22.602 31.4359 22.5609C31.477 22.5199 31.5 22.4643 31.5 22.4063C31.5 22.3482 31.477 22.2926 31.4359 22.2516C31.3949 22.2105 31.3393 22.1875 31.2813 22.1875H30.1875V21.3125H31.2813C31.5713 21.3125 31.8495 21.4277 32.0547 21.6329C32.2598 21.838 32.375 22.1162 32.375 22.4063C32.375 22.6963 32.2598 22.9745 32.0547 23.1797C31.8495 23.3848 31.5713 23.5 31.2813 23.5Z" fill="white"/>
<path d="M26.6875 23.5H24.0625C23.4826 23.4993 22.9266 23.2686 22.5165 22.8585C22.1064 22.4484 21.8757 21.8925 21.875 21.3125V20.2188C21.875 19.9287 21.9902 19.6505 22.1954 19.4454C22.4005 19.2402 22.6787 19.125 22.9688 19.125C23.2588 19.125 23.537 19.2402 23.7422 19.4454C23.9473 19.6505 24.0625 19.9287 24.0625 20.2188V20.875C24.0604 20.9004 24.064 20.926 24.073 20.9498C24.315 21.0073 24.5689 20.989 24.8001 20.8973L25.0758 21.7286C24.9139 21.7833 24.08 22.0348 23.5603 21.659C23.4379 21.5695 23.3398 21.451 23.2747 21.3141C23.2097 21.1773 23.1797 21.0264 23.1875 20.875V20.2188C23.1875 20.1607 23.1645 20.1051 23.1234 20.0641C23.0824 20.023 23.0268 20 22.9688 20C22.9107 20 22.8551 20.023 22.8141 20.0641C22.773 20.1051 22.75 20.1607 22.75 20.2188V21.3125C22.75 21.6606 22.8883 21.9944 23.1344 22.2406C23.3806 22.4867 23.7144 22.625 24.0625 22.625H26.6875V23.5Z" fill="white"/>
<path d="M30.4121 21.6874L29.9615 20.9376L31.7242 19.8801C31.7888 19.8409 31.8423 19.7858 31.8796 19.72C31.9168 19.6542 31.9365 19.5799 31.9368 19.5043V18.6875C31.9368 18.3394 32.0751 18.0056 32.3212 17.7594C32.5674 17.5133 32.9012 17.375 33.2493 17.375H33.5805C34.0665 17.3949 34.5272 17.5968 34.8711 17.9407L34.2525 18.5593C34.0723 18.3797 33.8341 18.27 33.5805 18.25H33.2493C33.1333 18.25 33.022 18.2961 32.9399 18.3781C32.8579 18.4602 32.8118 18.5715 32.8118 18.6875V19.5043C32.8111 19.7308 32.7521 19.9533 32.6405 20.1505C32.529 20.3476 32.3686 20.5127 32.1748 20.63L30.4121 21.6874Z" fill="white"/>
<path d="M29.9451 20.3938L29.5539 19.6106C30.0177 19.3788 30.1419 18.7317 30.1752 18.4215L29.1309 17.375H27.7668L26.3545 19.0703C26.2414 19.2119 26.101 19.3295 25.9417 19.4159C25.7824 19.5024 25.6074 19.556 25.427 19.5737C25.2466 19.5914 25.0645 19.5727 24.8915 19.5188C24.7184 19.4649 24.5579 19.3768 24.4195 19.2599C24.281 19.1429 24.1674 18.9993 24.0854 18.8377C24.0034 18.6761 23.9546 18.4996 23.9419 18.3188C23.9292 18.138 23.9529 17.9565 24.0115 17.785C24.0702 17.6135 24.1626 17.4555 24.2834 17.3203L26.3549 14.9031C26.396 14.8552 26.4469 14.8166 26.5042 14.7902C26.5615 14.7638 26.6239 14.7501 26.687 14.75H28.8745V15.625H26.8882L24.9475 17.8891C24.8866 17.9604 24.8479 18.0479 24.8361 18.1409C24.8243 18.2339 24.84 18.3283 24.8811 18.4126C24.9222 18.4968 24.987 18.5672 25.0676 18.6151C25.1482 18.663 25.241 18.6864 25.3347 18.6823C25.4019 18.6799 25.4678 18.6632 25.5281 18.6335C25.5885 18.6038 25.6418 18.5617 25.6847 18.5099L27.2282 16.6571C27.269 16.6082 27.3201 16.5688 27.3777 16.5416C27.4354 16.5145 27.4983 16.5003 27.562 16.5H29.312C29.428 16.5 29.5393 16.5461 29.6213 16.6282L30.9338 17.9407C31.0159 18.0227 31.062 18.134 31.062 18.25C31.062 18.3143 31.0493 19.8394 29.9451 20.3938Z" fill="white"/>
<path d="M22.6942 19.7616C22.4462 19.762 22.2036 19.6886 21.9973 19.5507C21.8523 19.4533 21.729 19.327 21.6352 19.1796C21.5414 19.0322 21.4792 18.867 21.4524 18.6943C21.4257 18.5217 21.435 18.3454 21.4797 18.1765C21.5245 18.0077 21.6037 17.8499 21.7125 17.7132L24.5921 14.0443C24.649 13.9716 24.7274 13.9188 24.8161 13.8934L27.8786 13.0184C27.9177 13.0068 27.9582 13.0006 27.9989 13H31.2583C32.0775 13.0005 32.883 13.2096 33.5989 13.6077L35.9396 14.911C36.2653 15.0921 36.6318 15.1872 37.0045 15.1875H41.5615C41.6775 15.1875 41.7888 15.2336 41.8708 15.3156C41.9529 15.3977 41.999 15.509 41.999 15.625V19.125C41.999 19.241 41.9529 19.3523 41.8708 19.4344C41.7888 19.5164 41.6775 19.5625 41.5615 19.5625H40.249V18.6875H41.124V16.0625H37.0045C36.4831 16.0622 35.9704 15.9291 35.5148 15.6758L33.1741 14.3724C32.5882 14.0466 31.9288 13.8754 31.2583 13.875H28.0602L25.1928 14.694L22.3989 18.2544C22.3392 18.3311 22.3105 18.4275 22.3187 18.5244C22.3268 18.6214 22.3712 18.7116 22.4429 18.7773C22.5146 18.843 22.6085 18.8792 22.7057 18.8788C22.803 18.8784 22.8965 18.8413 22.9677 18.775L24.1813 17.5098L24.8131 18.1153L23.5951 19.3875C23.4769 19.5061 23.3365 19.6002 23.1819 19.6644C23.0274 19.7286 22.8616 19.7616 22.6942 19.7616Z" fill="white"/>
<path d="M32.513 19.9773L32.2365 19.146L33.549 18.7085C33.5937 18.6942 33.6404 18.6871 33.6873 18.6875H39.3748V19.5625H33.7581L32.513 19.9773Z" fill="white"/>
<path d="M29.5275 16.9996L27.3401 18.3125L27.7905 19.0627L29.9778 17.7499L29.5275 16.9996Z" fill="white"/>
<defs>
<linearGradient id="paint0_linear_1319_1151" x1="17.5" y1="3" x2="31" y2="53.5" gradientUnits="userSpaceOnUse">
<stop stop-color="#5DC0FF"/>
<stop offset="1" stop-color="#C770FF"/>
</linearGradient>
</defs>
</svg>
