<svg width="150" height="50" viewBox="0 0 150 50" fill="none" xmlns="http://www.w3.org/2000/svg">
<path d="M138.055 0.0001625H11.9518C11.4921 0.0001625 11.038 0.0001625 10.5796 0.0026625C10.1958 0.0051625 9.81509 0.012425 9.42764 0.0185375C8.58593 0.0284148 7.74619 0.102258 6.91573 0.239425C6.08644 0.379578 5.28313 0.643807 4.53296 1.02318C3.78372 1.40575 3.09911 1.90287 2.50397 2.4965C1.90571 3.08846 1.40702 3.77268 1.02706 4.52286C0.646059 5.27155 0.38187 6.07384 0.243619 6.90201C0.104055 7.72914 0.028954 8.56581 0.0189907 9.40451C0.0073581 9.78776 0.00612966 10.1723 0 10.5556V39.4484C0.00612966 39.8365 0.0073581 40.2125 0.0189907 40.6008C0.0289571 41.4394 0.104058 42.2761 0.243619 43.1032C0.381488 43.9318 0.645693 44.7346 1.02706 45.4835C1.40685 46.2313 1.90561 46.9127 2.50397 47.5014C3.09685 48.0977 3.7819 48.5951 4.53296 48.9748C5.28312 49.3552 6.08635 49.621 6.91573 49.7633C7.74633 49.8994 8.58598 49.9732 9.42764 49.9843C9.81509 49.9928 10.1958 49.9977 10.5796 49.9977C11.038 50.0002 11.4922 50.0002 11.9518 50.0002H138.055C138.505 50.0002 138.963 50.0002 139.414 49.9977C139.796 49.9977 140.187 49.9928 140.569 49.9843C141.409 49.9738 142.247 49.8999 143.076 49.7633C143.908 49.62 144.715 49.3542 145.468 48.9748C146.219 48.5949 146.903 48.0975 147.495 47.5014C148.092 46.9104 148.592 46.2295 148.977 45.4835C149.355 44.734 149.617 43.9313 149.753 43.1032C149.892 42.276 149.97 41.4395 149.985 40.6008C149.99 40.2125 149.99 39.8365 149.99 39.4484C150 38.9943 150 38.5427 150 38.0812V11.9203C150 11.4626 150 11.0085 149.99 10.5556C149.99 10.1723 149.99 9.78776 149.985 9.40446C149.97 8.56569 149.892 7.72921 149.753 6.90196C149.616 6.07426 149.355 5.27204 148.977 4.52281C148.203 3.01916 146.976 1.79519 145.468 1.02306C144.715 0.644622 143.908 0.380463 143.076 0.239312C142.248 0.101541 141.409 0.0276722 140.569 0.0183625C140.187 0.0122625 139.796 0.0049375 139.414 0.0025C138.963 0 138.505 0.0001625 138.055 0.0001625Z" fill="black"/>
<path d="M10.5852 48.9058C10.2033 48.9058 9.83061 48.9009 9.45168 48.8924C8.66671 48.8822 7.88358 48.814 7.1087 48.6885C6.38616 48.5644 5.68622 48.3336 5.03196 48.0036C4.3837 47.6764 3.79243 47.2474 3.28081 46.7329C2.76178 46.2245 2.32967 45.6348 2.00159 44.9873C1.6699 44.3355 1.44035 43.6369 1.32093 42.9158C1.19198 42.1409 1.12221 41.3574 1.11222 40.572C1.10428 40.3084 1.09387 39.4306 1.09387 39.4306V10.5549C1.09387 10.5549 1.10495 9.69067 1.11229 9.43676C1.12185 8.65261 1.19121 7.87033 1.31978 7.09667C1.43941 6.37357 1.66914 5.67295 2.00101 5.01905C2.32788 4.37194 2.7576 3.78184 3.2735 3.27161C3.78882 2.75654 4.38198 2.32527 5.03135 1.99352C5.6841 1.66463 6.38272 1.43543 7.1038 1.3136C7.88122 1.18681 8.66707 1.11826 9.45477 1.10852L10.5858 1.09326H139.407L140.552 1.10914C141.332 1.11839 142.111 1.18632 142.881 1.31237C143.61 1.43573 144.316 1.66653 144.976 1.99719C146.277 2.66574 147.335 3.72347 148.003 5.0221C148.33 5.67148 148.556 6.36639 148.674 7.08325C148.804 7.86325 148.877 8.65168 148.892 9.44226C148.895 9.79626 148.895 10.1765 148.895 10.5549C148.905 11.0237 148.905 11.4698 148.905 11.9197V38.0805C148.905 38.5346 148.905 38.9778 148.895 39.4245C148.895 39.831 148.895 40.2034 148.89 40.5866C148.876 41.3631 148.804 42.1375 148.676 42.9035C148.559 43.6298 148.331 44.3339 147.999 44.991C147.669 45.6315 147.239 46.2161 146.726 46.7231C146.214 47.2404 145.622 47.6719 144.972 48.0013C144.314 48.3338 143.609 48.5654 142.881 48.6885C142.106 48.8147 141.323 48.8829 140.538 48.8924C140.171 48.9009 139.787 48.9058 139.413 48.9058L138.054 48.9083L10.5852 48.9058Z" fill="black"/>
<path d="M31.0528 25.3757C31.0663 24.3323 31.3442 23.3094 31.8607 22.4019C32.3772 21.4945 33.1154 20.732 34.0068 20.1856C33.4406 19.3791 32.6935 18.7155 31.8251 18.2473C30.9566 17.7791 29.9906 17.5193 29.0039 17.4885C26.8989 17.2682 24.8583 18.7445 23.7856 18.7445C22.6922 18.7445 21.0407 17.5104 19.2623 17.5468C18.112 17.5839 16.9909 17.9175 16.0084 18.515C15.0258 19.1126 14.2151 19.9538 13.6555 20.9567C11.2312 25.1422 13.0395 31.2935 15.3618 34.6768C16.5236 36.3335 17.8815 38.184 19.6583 38.1184C21.397 38.0465 22.0464 37.0128 24.1451 37.0128C26.2244 37.0128 26.8337 38.1184 28.6465 38.0767C30.5122 38.0465 31.6877 36.4126 32.8088 34.7403C33.6436 33.5598 34.286 32.2552 34.7121 30.8746C33.6282 30.4175 32.7032 29.6522 32.0525 28.6744C31.4018 27.6965 31.0541 26.5492 31.0528 25.3757Z" fill="white"/>
<path d="M27.6287 15.2634C28.6459 14.0457 29.1471 12.4804 29.0257 10.9001C27.4716 11.0629 26.036 11.8036 25.005 12.9747C24.5009 13.5467 24.1148 14.2123 23.8688 14.9332C23.6228 15.6542 23.5218 16.4165 23.5714 17.1764C24.3487 17.1844 25.1177 17.0164 25.8205 16.685C26.5233 16.3536 27.1416 15.8676 27.6287 15.2634Z" fill="white"/>
<path d="M53.0255 33.9243H47.0921L45.6673 38.1199H43.1541L48.7741 22.5974H51.3852L57.0051 38.1199H54.4491L53.0255 33.9243ZM47.7066 31.9883H52.4098L50.0913 25.1792H50.0264L47.7066 31.9883Z" fill="white"/>
<path d="M69.1416 32.4621C69.1416 35.9789 67.254 38.2384 64.4055 38.2384C63.6839 38.2761 62.9662 38.1103 62.3347 37.7601C61.7032 37.41 61.1834 36.8895 60.8347 36.2584H60.7808V41.8639H58.4513V26.8029H60.7061V28.6852H60.749C61.1137 28.0571 61.6423 27.5394 62.2787 27.1871C62.915 26.8348 63.6352 26.6611 64.3626 26.6845C67.243 26.6845 69.1416 28.955 69.1416 32.4621ZM66.7472 32.4621C66.7472 30.1708 65.5598 28.6644 63.7481 28.6644C61.9682 28.6644 60.771 30.2025 60.771 32.4621C60.771 34.7423 61.9682 36.2694 63.7481 36.2694C65.5598 36.2694 66.7472 34.7741 66.7472 32.4621Z" fill="white"/>
<path d="M81.6347 32.462C81.6347 35.9789 79.7471 38.2384 76.8985 38.2384C76.1769 38.2761 75.4593 38.1103 74.8278 37.7601C74.1963 37.41 73.6764 36.8895 73.3277 36.2584H73.2738V41.8639H70.9443V26.8029H73.1991V28.6852H73.242C73.6067 28.0571 74.1353 27.5394 74.7717 27.1871C75.408 26.8348 76.1282 26.6611 76.8556 26.6845C79.736 26.6845 81.6347 28.955 81.6347 32.462ZM79.2403 32.462C79.2403 30.1708 78.0529 28.6644 76.2411 28.6644C74.4613 28.6644 73.2641 30.2025 73.2641 32.462C73.2641 34.7423 74.4613 36.2694 76.2411 36.2694C78.0529 36.2694 79.2403 34.7741 79.2403 32.462Z" fill="white"/>
<path d="M89.8874 33.7947C90.06 35.3341 91.5596 36.3447 93.6087 36.3447C95.5723 36.3447 96.9849 35.334 96.9849 33.9461C96.9849 32.7412 96.1329 32.0198 94.1155 31.5254L92.0982 31.0408C89.2398 30.3523 87.9129 29.0193 87.9129 26.8562C87.9129 24.178 90.2534 22.3384 93.5769 22.3384C96.8661 22.3384 99.121 24.178 99.1969 26.8562H96.8453C96.7045 25.3071 95.4204 24.3721 93.5438 24.3721C91.6672 24.3721 90.3831 25.3181 90.3831 26.6951C90.3831 27.7925 91.2033 28.4382 93.2097 28.9326L94.9246 29.3525C98.1184 30.1057 99.4454 31.385 99.4454 33.6555C99.4454 36.5595 97.1256 38.3784 93.4361 38.3784C89.9841 38.3784 87.6533 36.6023 87.5027 33.7946L89.8874 33.7947Z" fill="white"/>
<path d="M104.473 24.1245V26.8027H106.632V28.6423H104.473V34.8813C104.473 35.8506 104.906 36.3022 105.854 36.3022C106.11 36.2978 106.366 36.2798 106.621 36.2485V38.0771C106.194 38.1566 105.761 38.1926 105.327 38.1845C103.029 38.1845 102.133 37.3239 102.133 35.1291V28.6423H100.483V26.8027H102.133V24.1245H104.473Z" fill="white"/>
<path d="M107.883 32.4619C107.883 28.9011 109.986 26.6636 113.266 26.6636C116.556 26.6636 118.649 28.9011 118.649 32.4619C118.649 36.0325 116.567 38.2602 113.266 38.2602C109.965 38.2602 107.883 36.0325 107.883 32.4619ZM116.276 32.4619C116.276 30.0193 115.153 28.5776 113.266 28.5776C111.378 28.5776 110.257 30.0303 110.257 32.4619C110.257 34.9143 111.378 36.345 113.266 36.345C115.153 36.345 116.276 34.9143 116.276 32.4619Z" fill="white"/>
<path d="M120.568 26.8028H122.79V28.729H122.844C122.994 28.1274 123.348 27.5957 123.845 27.2234C124.342 26.851 124.952 26.6607 125.574 26.6843C125.842 26.6834 126.11 26.7125 126.372 26.771V28.9439C126.033 28.8406 125.679 28.7932 125.325 28.8035C124.987 28.7898 124.649 28.8493 124.336 28.9779C124.023 29.1065 123.741 29.3012 123.511 29.5485C123.28 29.7959 123.106 30.0901 123 30.4109C122.894 30.7318 122.859 31.0717 122.898 31.4072V38.1199H120.568L120.568 26.8028Z" fill="white"/>
<path d="M137.114 34.7959C136.801 36.8503 134.794 38.2602 132.227 38.2602C128.926 38.2602 126.877 36.0544 126.877 32.5156C126.877 28.9658 128.937 26.6636 132.129 26.6636C135.269 26.6636 137.244 28.8144 137.244 32.2458V33.0417H129.228V33.1821C129.191 33.5986 129.243 34.0182 129.382 34.413C129.52 34.8078 129.74 35.1688 130.029 35.472C130.318 35.7752 130.668 36.0136 131.056 36.1715C131.445 36.3294 131.862 36.4031 132.281 36.3877C132.832 36.4391 133.384 36.312 133.856 36.0252C134.328 35.7384 134.695 35.3072 134.902 34.7959L137.114 34.7959ZM129.239 31.4182H134.913C134.934 31.0437 134.877 30.669 134.746 30.3174C134.615 29.9659 134.412 29.6453 134.151 29.3755C133.889 29.1058 133.575 28.8929 133.227 28.7502C132.879 28.6074 132.505 28.5378 132.129 28.5459C131.75 28.5436 131.374 28.6163 131.023 28.7598C130.672 28.9032 130.353 29.1145 130.084 29.3816C129.815 29.6486 129.602 29.9661 129.457 30.3156C129.312 30.6652 129.238 31.0399 129.239 31.4182Z" fill="white"/>
<path d="M47.4193 10.9132C47.9077 10.8783 48.3978 10.9519 48.8542 11.1287C49.3106 11.3055 49.722 11.5811 50.0587 11.9356C50.3953 12.2901 50.6489 12.7147 50.8011 13.1788C50.9533 13.6429 51.0003 14.1349 50.9387 14.6193C50.9387 17.0021 49.6472 18.3718 47.4193 18.3718H44.7177V10.9132H47.4193ZM45.8793 17.317H47.2895C47.6385 17.3378 47.9878 17.2807 48.3118 17.15C48.6359 17.0192 48.9267 16.818 49.163 16.5611C49.3992 16.3041 49.5751 15.9978 49.6777 15.6646C49.7803 15.3313 49.8071 14.9794 49.7562 14.6345C49.8034 14.291 49.7739 13.9412 49.6697 13.6104C49.5655 13.2796 49.3892 12.9758 49.1535 12.7209C48.9178 12.466 48.6284 12.2662 48.3062 12.1359C47.9839 12.0057 47.6367 11.948 47.2895 11.9673H45.8793V17.317Z" fill="white"/>
<path d="M52.2504 15.555C52.2149 15.1851 52.2574 14.8119 52.375 14.4593C52.4926 14.1067 52.6829 13.7825 52.9335 13.5076C53.1841 13.2326 53.4896 13.0129 53.8304 12.8625C54.1711 12.7122 54.5397 12.6345 54.9123 12.6345C55.2849 12.6345 55.6534 12.7122 55.9942 12.8625C56.335 13.0129 56.6405 13.2326 56.8911 13.5076C57.1417 13.7825 57.332 14.1067 57.4496 14.4593C57.5672 14.8119 57.6096 15.1851 57.5742 15.555C57.6103 15.9253 57.5684 16.299 57.4511 16.6522C57.3337 17.0053 57.1436 17.3301 56.8929 17.6056C56.6422 17.8811 56.3365 18.1013 55.9954 18.252C55.6543 18.4026 55.2854 18.4805 54.9123 18.4805C54.5392 18.4805 54.1703 18.4026 53.8292 18.252C53.488 18.1013 53.1823 17.8811 52.9316 17.6056C52.6809 17.3301 52.4908 17.0053 52.3735 16.6522C52.2562 16.299 52.2143 15.9253 52.2504 15.555ZM56.4284 15.555C56.4284 14.3349 55.8787 13.6214 54.9141 13.6214C53.9458 13.6214 53.4011 14.3349 53.4011 15.555C53.4011 16.7849 53.9459 17.4929 54.9141 17.4929C55.8787 17.4929 56.4284 16.78 56.4284 15.555Z" fill="white"/>
<path d="M64.6512 18.3716H63.4956L62.329 14.2261H62.2409L61.0792 18.3716H59.9346L58.3788 12.7429H59.5086L60.5198 17.0379H60.603L61.7635 12.7429H62.8321L63.9926 17.0379H64.0808L65.087 12.7429H66.2009L64.6512 18.3716Z" fill="white"/>
<path d="M67.5103 12.7426H68.5826V13.6368H68.6658C68.8071 13.3156 69.0452 13.0464 69.3472 12.8666C69.6491 12.6869 69.9997 12.6055 70.3502 12.634C70.6249 12.6134 70.9007 12.6547 71.1571 12.7548C71.4136 12.8549 71.6442 13.0113 71.8318 13.2123C72.0194 13.4134 72.1593 13.654 72.241 13.9162C72.3228 14.1785 72.3443 14.4558 72.3039 14.7275V18.3712H71.19V15.0064C71.19 14.1019 70.7958 13.652 69.972 13.652C69.7855 13.6434 69.5994 13.675 69.4263 13.7448C69.2533 13.8146 69.0974 13.9209 68.9694 14.0564C68.8414 14.1918 68.7442 14.3533 68.6847 14.5297C68.6251 14.7061 68.6045 14.8933 68.6242 15.0784V18.3713H67.5103L67.5103 12.7426Z" fill="white"/>
<path d="M74.0773 10.5457H75.1913V18.3716H74.0773V10.5457Z" fill="white"/>
<path d="M76.7399 15.5549C76.7045 15.1849 76.7469 14.8117 76.8646 14.4591C76.9822 14.1065 77.1725 13.7823 77.4231 13.5073C77.6738 13.2323 77.9793 13.0126 78.3201 12.8623C78.6609 12.7119 79.0294 12.6343 79.4021 12.6343C79.7747 12.6343 80.1433 12.7119 80.4841 12.8623C80.8249 13.0126 81.1304 13.2323 81.381 13.5073C81.6317 13.7823 81.822 14.1065 81.9396 14.4591C82.0573 14.8117 82.0997 15.1849 82.0643 15.5549C82.1004 15.9251 82.0584 16.2989 81.9411 16.652C81.8237 17.0052 81.6336 17.33 81.3828 17.6055C81.1321 17.881 80.8264 18.1011 80.4853 18.2518C80.1441 18.4025 79.7752 18.4803 79.4021 18.4803C79.029 18.4803 78.6601 18.4025 78.3189 18.2518C77.9778 18.1011 77.6721 17.881 77.4213 17.6055C77.1706 17.33 76.9805 17.0052 76.8631 16.652C76.7458 16.2989 76.7038 15.9251 76.7399 15.5549ZM80.9179 15.5549C80.9179 14.3348 80.3682 13.6213 79.4036 13.6213C78.4353 13.6213 77.8906 14.3348 77.8906 15.5549C77.8906 16.7847 78.4354 17.4927 79.4036 17.4927C80.3682 17.4927 80.9179 16.7798 80.9179 15.5549Z" fill="white"/>
<path d="M83.2373 16.78C83.2373 15.7668 83.9938 15.1827 85.3367 15.0997L86.8657 15.0118V14.526C86.8657 13.9315 86.4715 13.5958 85.7101 13.5958C85.0882 13.5958 84.6573 13.8235 84.5337 14.2214H83.4552C83.5691 13.2546 84.4811 12.6345 85.7615 12.6345C87.1766 12.6345 87.9747 13.337 87.9747 14.526V18.3718H86.9024V17.5808H86.8142C86.6353 17.8645 86.3841 18.0959 86.0863 18.2511C85.7884 18.4064 85.4546 18.48 85.1188 18.4646C84.8819 18.4891 84.6424 18.4639 84.4158 18.3906C84.1892 18.3172 83.9806 18.1973 83.8033 18.0386C83.626 17.8798 83.4841 17.6859 83.3866 17.4691C83.2891 17.2523 83.2383 17.0176 83.2373 16.78ZM86.8657 16.2991V15.8285L85.4873 15.9164C84.71 15.9682 84.3574 16.2319 84.3574 16.7281C84.3574 17.2347 84.7981 17.5295 85.4041 17.5295C85.5816 17.5474 85.761 17.5296 85.9315 17.477C86.102 17.4243 86.2601 17.3381 86.3965 17.2233C86.5328 17.1085 86.6446 16.9675 86.7252 16.8087C86.8058 16.6499 86.8536 16.4766 86.8657 16.2991Z" fill="white"/>
<path d="M89.4372 15.5548C89.4372 13.7763 90.3541 12.6496 91.7802 12.6496C92.133 12.6333 92.4831 12.7176 92.7896 12.8925C93.0961 13.0673 93.3464 13.3256 93.5111 13.6371H93.5944V10.5457H94.7083V18.3716H93.6409V17.4823H93.5528C93.3753 17.7917 93.1163 18.0467 92.8038 18.2198C92.4914 18.3929 92.1374 18.4775 91.7802 18.4643C90.3443 18.4644 89.4372 17.3377 89.4372 15.5548ZM90.5879 15.5548C90.5879 16.7487 91.1523 17.4671 92.0961 17.4671C93.035 17.4671 93.6152 16.7383 93.6152 15.5597C93.6152 14.3866 93.0289 13.6475 92.0961 13.6475C91.1584 13.6475 90.5879 14.3707 90.5879 15.5548Z" fill="white"/>
<path d="M99.3194 15.555C99.284 15.1851 99.3264 14.8119 99.444 14.4593C99.5617 14.1067 99.7519 13.7825 100.003 13.5076C100.253 13.2326 100.559 13.0129 100.899 12.8625C101.24 12.7122 101.609 12.6345 101.981 12.6345C102.354 12.6345 102.722 12.7122 103.063 12.8625C103.404 13.0129 103.709 13.2326 103.96 13.5076C104.211 13.7825 104.401 14.1067 104.519 14.4593C104.636 14.8119 104.679 15.1851 104.643 15.555C104.679 15.9253 104.637 16.299 104.52 16.6522C104.403 17.0053 104.213 17.3301 103.962 17.6056C103.711 17.8811 103.406 18.1013 103.064 18.252C102.723 18.4026 102.354 18.4805 101.981 18.4805C101.608 18.4805 101.239 18.4026 100.898 18.252C100.557 18.1013 100.251 17.8811 100.001 17.6056C99.75 17.3301 99.5598 17.0053 99.4425 16.6522C99.3252 16.299 99.2833 15.9253 99.3194 15.555ZM103.497 15.555C103.497 14.3349 102.948 13.6214 101.983 13.6214C101.015 13.6214 100.47 14.3349 100.47 15.555C100.47 16.7849 101.015 17.4929 101.983 17.4929C102.948 17.4929 103.497 16.78 103.497 15.555Z" fill="white"/>
<path d="M106.136 12.7426H107.209V13.6368H107.292C107.433 13.3156 107.671 13.0464 107.973 12.8666C108.275 12.6869 108.626 12.6055 108.976 12.634C109.251 12.6134 109.527 12.6547 109.783 12.7548C110.04 12.8549 110.27 13.0113 110.458 13.2123C110.646 13.4134 110.785 13.654 110.867 13.9162C110.949 14.1785 110.97 14.4558 110.93 14.7275V18.3712H109.816V15.0064C109.816 14.1019 109.422 13.652 108.598 13.652C108.412 13.6434 108.226 13.675 108.053 13.7448C107.879 13.8146 107.724 13.9209 107.596 14.0564C107.468 14.1918 107.37 14.3533 107.311 14.5297C107.251 14.7061 107.231 14.8933 107.25 15.0784V18.3713H106.136V12.7426Z" fill="white"/>
<path d="M117.226 11.3416V12.7686H118.449V13.7042H117.226V16.5985C117.226 17.1881 117.47 17.4463 118.024 17.4463C118.166 17.4458 118.308 17.4373 118.449 17.4207V18.3459C118.249 18.3816 118.046 18.4006 117.843 18.4027C116.604 18.4027 116.111 17.9681 116.111 16.8829V13.7042H115.215V12.7685H116.111V11.3416H117.226Z" fill="white"/>
<path d="M119.973 10.5457H121.077V13.6475H121.165C121.313 13.3233 121.558 13.0526 121.866 12.8721C122.174 12.6917 122.53 12.6104 122.886 12.6392C123.159 12.6243 123.432 12.6698 123.686 12.7724C123.939 12.8749 124.167 13.032 124.353 13.2324C124.538 13.4329 124.677 13.6717 124.76 13.9319C124.842 14.192 124.866 14.4671 124.83 14.7376V18.3716H123.715V15.0116C123.715 14.1125 123.295 13.6572 122.508 13.6572C122.316 13.6416 122.124 13.6678 121.944 13.7341C121.763 13.8004 121.6 13.9052 121.464 14.0411C121.329 14.1771 121.225 14.3408 121.16 14.521C121.095 14.7012 121.07 14.8934 121.087 15.0842V18.3716H119.973L119.973 10.5457Z" fill="white"/>
<path d="M131.324 16.8519C131.173 17.3663 130.845 17.8113 130.398 18.109C129.95 18.4067 129.413 18.5381 128.878 18.4803C128.506 18.4901 128.137 18.4191 127.795 18.2722C127.454 18.1253 127.148 17.906 126.9 17.6296C126.652 17.3531 126.467 17.0262 126.359 16.6714C126.25 16.3166 126.22 15.9425 126.271 15.575C126.221 15.2064 126.252 14.8315 126.36 14.4757C126.469 14.1198 126.652 13.7914 126.899 13.5125C127.146 13.2337 127.45 13.011 127.79 12.8595C128.131 12.708 128.5 12.6312 128.873 12.6344C130.444 12.6344 131.391 13.7044 131.391 15.4719V15.8595H127.406V15.9217C127.388 16.1283 127.414 16.3362 127.482 16.5321C127.55 16.7281 127.658 16.9077 127.799 17.0595C127.941 17.2114 128.113 17.332 128.304 17.4138C128.495 17.4955 128.701 17.5365 128.909 17.5342C129.175 17.5661 129.445 17.5183 129.684 17.3968C129.923 17.2753 130.121 17.0856 130.252 16.8519L131.324 16.8519ZM127.405 15.0379H130.256C130.271 14.849 130.245 14.6593 130.181 14.4809C130.117 14.3025 130.016 14.1394 129.886 14.0021C129.755 13.8647 129.597 13.7562 129.421 13.6835C129.246 13.6108 129.057 13.5755 128.867 13.5798C128.674 13.5774 128.483 13.6135 128.305 13.6859C128.126 13.7583 127.964 13.8657 127.828 14.0015C127.692 14.1374 127.584 14.2991 127.512 14.4771C127.439 14.6551 127.403 14.8458 127.405 15.0379Z" fill="white"/>
</svg>
