<svg width="55" height="55" viewBox="0 0 55 55" fill="none" xmlns="http://www.w3.org/2000/svg">
<circle cx="27.5" cy="27.5" r="27.5" fill="url(#paint0_linear_1319_1162)"/>
<path d="M42.5456 27.2545C42.5444 26.3097 42.1685 25.404 41.5005 24.7359C40.8324 24.0679 39.9267 23.6921 38.9819 23.6908H34.4001V20.1272C34.4001 20.0538 34.3842 19.9813 34.3535 19.9146C34.3228 19.848 34.2781 19.7887 34.2224 19.7409C34.1667 19.6932 34.1013 19.658 34.0308 19.6379C33.9602 19.6177 33.8861 19.6131 33.8136 19.6242L27.7819 20.5518V20.0763C28.3564 19.9581 28.8727 19.6455 29.2436 19.1911C29.6146 18.7367 29.8175 18.1683 29.8183 17.5817C29.8183 15.36 27.7223 13.2381 27.6327 13.1491C27.5372 13.0536 27.4078 13 27.2728 13C27.1378 13 27.0083 13.0536 26.9129 13.1491C26.8233 13.2381 24.7273 15.36 24.7273 17.5817C24.7281 18.1683 24.931 18.7367 25.3019 19.1911C25.6729 19.6455 26.1891 19.9581 26.7637 20.0763V20.7091L20.5772 21.6611C20.4571 21.6796 20.3476 21.7404 20.2684 21.8325C20.1893 21.9247 20.1457 22.0421 20.1455 22.1636V27.8354C19.7737 27.4343 19.3448 27.0902 18.8728 26.8141C18.7954 26.7694 18.7076 26.7459 18.6182 26.7459C18.5288 26.7459 18.4411 26.7694 18.3637 26.8141C17.6218 27.2452 16.9884 27.8402 16.5119 28.5537C16.0355 29.2672 15.7285 30.0803 15.6146 30.9307C15.2627 30.8585 14.9046 30.8208 14.5455 30.8181C14.3208 30.8191 14.0964 30.8338 13.8735 30.8619C13.7847 30.8726 13.7004 30.9065 13.6289 30.9601C13.5574 31.0137 13.5013 31.0852 13.4662 31.1674C12.9628 32.3481 12.8807 33.666 13.2336 34.9C13.5864 36.1341 14.3529 37.2093 15.4043 37.9454H12V38.9636H13.2127L14.0898 40.7185C14.1321 40.8031 14.1971 40.8743 14.2776 40.924C14.3581 40.9737 14.4509 41 14.5455 41H33.891C34.026 41 34.1555 40.9464 34.251 40.8509C34.3465 40.7554 34.4001 40.6259 34.4001 40.4909V38.9636H37.6491L38.5263 40.7185C38.5686 40.8031 38.6336 40.8743 38.7141 40.924C38.7946 40.9737 38.8873 41 38.9819 41H41.0183C41.1533 41 41.2828 40.9464 41.3783 40.8509C41.4738 40.7554 41.5274 40.6259 41.5274 40.4909V38.9636H42.0365C42.1715 38.9636 42.301 38.91 42.3965 38.8145C42.4919 38.719 42.5456 38.5896 42.5456 38.4545V36.4182C42.5456 36.2831 42.4919 36.1537 42.3965 36.0582C42.301 35.9627 42.1715 35.9091 42.0365 35.9091H41.4709C41.8616 35.5288 42.1596 35.0638 42.3417 34.55C42.5239 34.0361 42.5854 33.4872 42.5214 32.9458C42.4574 32.4044 42.2697 31.885 41.9727 31.4277C41.6758 30.9705 41.2776 30.5877 40.8091 30.309C41.3377 29.9933 41.7756 29.546 42.0799 29.0107C42.3843 28.4753 42.5447 27.8703 42.5456 27.2545ZM25.7455 17.5817C25.7455 16.28 26.7255 14.9263 27.2728 14.2726C27.8206 14.9258 28.8001 16.2769 28.8001 17.5817C28.7988 17.8965 28.7002 18.2031 28.518 18.4598C28.3357 18.7164 28.0786 18.9104 27.7819 19.0153V18.0908H26.7637V19.0153C26.4669 18.9104 26.2098 18.7164 26.0276 18.4598C25.8453 18.2031 25.7468 17.8965 25.7455 17.5817ZM21.1637 29.2909V22.6004L33.3819 20.7208V23.6908H31.8546C31.1429 23.6899 30.4472 23.9024 29.8574 24.3008C29.2677 24.6993 28.8109 25.2654 28.5462 25.9261C28.2815 26.5868 28.2209 27.3117 28.3724 28.0071C28.5238 28.7026 28.8802 29.3366 29.3957 29.8274C28.7283 29.9062 28.0968 30.1724 27.5744 30.5951C27.052 31.0179 26.66 31.58 26.4437 32.2163C26.2275 32.8526 26.196 33.5372 26.3527 34.1907C26.5094 34.8442 26.848 35.44 27.3293 35.9091H26.7637C26.6287 35.9091 26.4992 35.9627 26.4037 36.0582C26.3082 36.1537 26.2546 36.2831 26.2546 36.4182V38.4545C26.2546 38.5896 26.3082 38.719 26.4037 38.8145C26.4992 38.91 26.6287 38.9636 26.7637 38.9636H27.2728V39.9818H23.5147L24.0238 38.9636H25.2364V37.9454H21.828C22.8806 37.2104 23.6482 36.1355 24.0018 34.9013C24.3555 33.6672 24.2737 32.3489 23.7702 31.1679C23.7351 31.0857 23.679 31.0142 23.6075 30.9606C23.536 30.907 23.4517 30.8731 23.363 30.8624C22.7836 30.7879 22.196 30.8086 21.6234 30.9235C21.5439 30.3573 21.3779 29.8066 21.1311 29.2909H21.1637ZM18.3677 37.9368C18.125 37.2459 18.0514 36.5069 18.1532 35.7818C18.2549 35.0566 18.5289 34.3664 18.9523 33.7689C19.3757 33.1715 19.9361 32.6842 20.5866 32.348C21.2371 32.0117 21.9587 31.8363 22.691 31.8363C22.7709 31.8363 22.8544 31.8394 22.9414 31.845C23.1841 32.5359 23.2577 33.2748 23.156 34C23.0543 34.7252 22.7803 35.4154 22.3569 36.0128C21.9335 36.6103 21.3731 37.0975 20.7226 37.4338C20.0721 37.7701 19.3505 37.9455 18.6182 37.9454C18.5383 37.9454 18.4548 37.9424 18.3677 37.9368ZM18.6182 27.8542C19.18 28.2323 19.6513 28.7298 19.9985 29.3111C20.3457 29.8925 20.5601 30.5434 20.6266 31.2173C19.8673 31.5205 19.1834 31.986 18.6228 32.5811C18.0581 31.9883 17.371 31.5257 16.6093 31.2254C16.6746 30.5501 16.8886 29.8975 17.2359 29.3147C17.5832 28.7318 18.0553 28.233 18.6182 27.8542ZM14.0364 33.3636C14.0357 32.8464 14.1232 32.3328 14.295 31.845C14.382 31.8394 14.4655 31.8363 14.5455 31.8363C15.197 31.8344 15.8412 31.9728 16.4344 32.2423C17.0276 32.5117 17.5557 32.9058 17.9829 33.3977C17.5699 34.0325 17.2921 34.7456 17.1668 35.4924C17.0416 36.2393 17.0715 37.004 17.2549 37.7388C16.322 37.448 15.5065 36.8666 14.9274 36.0795C14.3484 35.2924 14.0362 34.3408 14.0364 33.3636ZM22.3763 39.9818H14.8601L14.351 38.9636H22.8854L22.3763 39.9818ZM29.5036 39.9818H28.291V38.9636H30.0127L29.5036 39.9818ZM33.3819 39.9818H30.642L31.1511 38.9636H33.3819V39.9818ZM40.5092 39.9818H39.2965L38.7874 38.9636H40.5092V39.9818ZM41.5274 36.9273V37.9454H27.2728V36.9273H41.5274ZM41.5274 33.3636C41.5266 34.0385 41.2581 34.6854 40.7809 35.1626C40.3038 35.6398 39.6568 35.9083 38.9819 35.9091H29.8183C29.1432 35.9091 28.4957 35.6409 28.0183 35.1635C27.541 34.6862 27.2728 34.0387 27.2728 33.3636C27.2728 32.6885 27.541 32.0411 28.0183 31.5637C28.4957 31.0863 29.1432 30.8181 29.8183 30.8181H36.4365C36.8415 30.8181 37.23 30.9791 37.5164 31.2655C37.8028 31.5519 37.9637 31.9404 37.9637 32.3454C37.9637 32.7505 37.8028 33.1389 37.5164 33.4254C37.23 33.7118 36.8415 33.8727 36.4365 33.8727H31.3455C31.2105 33.8727 31.081 33.8191 30.9855 33.7236C30.8901 33.6281 30.8364 33.4986 30.8364 33.3636C30.8364 33.2286 30.8901 33.0991 30.9855 33.0036C31.081 32.9081 31.2105 32.8545 31.3455 32.8545H34.9092V31.8363H31.3455C30.9405 31.8363 30.552 31.9972 30.2656 32.2837C29.9792 32.5701 29.8183 32.9585 29.8183 33.3636C29.8183 33.7687 29.9792 34.1571 30.2656 34.4436C30.552 34.73 30.9405 34.8909 31.3455 34.8909H36.4365C37.1113 34.8901 37.7583 34.6216 38.2355 34.1444C38.7127 33.6672 38.9811 33.0203 38.9819 32.3454C38.9801 31.7928 38.7965 31.2562 38.4596 30.8181H38.9819C39.6568 30.819 40.3038 31.0874 40.7809 31.5646C41.2581 32.0418 41.5266 32.6888 41.5274 33.3636ZM36.4365 29.8H31.8546C31.1795 29.8 30.5321 29.5318 30.0547 29.0544C29.5773 28.577 29.3092 27.9296 29.3092 27.2545C29.3092 26.5794 29.5773 25.9319 30.0547 25.4546C30.5321 24.9772 31.1795 24.709 31.8546 24.709H37.4546C37.8597 24.709 38.2482 24.8699 38.5346 25.1564C38.821 25.4428 38.9819 25.8312 38.9819 26.2363C38.9819 26.6414 38.821 27.0298 38.5346 27.3163C38.2482 27.6027 37.8597 27.7636 37.4546 27.7636H32.3637C32.2287 27.7636 32.0992 27.7099 32.0037 27.6145C31.9083 27.519 31.8546 27.3895 31.8546 27.2545C31.8546 27.1195 31.9083 26.99 32.0037 26.8945C32.0992 26.799 32.2287 26.7454 32.3637 26.7454H35.9274V25.7272H32.3637C31.9587 25.7272 31.5702 25.8881 31.2838 26.1745C30.9973 26.461 30.8364 26.8494 30.8364 27.2545C30.8364 27.6596 30.9973 28.048 31.2838 28.3344C31.5702 28.6209 31.9587 28.7818 32.3637 28.7818H37.4546C38.1295 28.781 38.7765 28.5125 39.2537 28.0353C39.7309 27.5581 39.9993 26.9112 40.0001 26.2363C39.9996 25.7112 39.8351 25.1993 39.5297 24.7722C40.1389 24.9104 40.6761 25.2678 41.0388 25.7764C41.4016 26.285 41.5647 26.9092 41.497 27.5302C41.4294 28.1513 41.1357 28.7257 40.6719 29.1443C40.2081 29.5628 39.6066 29.7962 38.9819 29.8H36.4365Z" fill="white"/>
<path d="M23.1999 23.6909H22.1818V27.7637H23.1999V23.6909Z" fill="white"/>
<path d="M23.1999 28.7817H22.1818V29.7999H23.1999V28.7817Z" fill="white"/>
<defs>
<linearGradient id="paint0_linear_1319_1162" x1="17.5" y1="3" x2="31" y2="53.5" gradientUnits="userSpaceOnUse">
<stop stop-color="#FF634B"/>
<stop offset="1" stop-color="#FFBC45"/>
</linearGradient>
</defs>
</svg>
