<svg width="55" height="55" viewBox="0 0 55 55" fill="none" xmlns="http://www.w3.org/2000/svg">
<circle cx="27.5" cy="27.5" r="27.5" fill="url(#paint0_linear_1319_1288)"/>
<path d="M39.6478 19.1946C39.5448 18.6846 39.2744 18.2236 38.8794 17.8849L36.109 15.5111C36.0252 15.4387 35.9182 15.3986 35.8074 15.398H34.6852C34.513 15.2832 34.3268 15.1665 34.1267 15.048L33.8228 13L32.903 13.1396L33.2512 15.398L33.8284 19.8784L32.7355 19.1518C32.3643 18.9035 31.9125 18.8058 31.4719 18.8787C31.0313 18.9515 30.635 19.1894 30.3635 19.5439C30.092 19.8985 29.9657 20.3431 30.0102 20.7874C30.0547 21.2318 30.2668 21.6425 30.6033 21.9361L33.5696 24.5314L34.7225 26.8368L34.8351 27.7053C34.8403 27.8082 34.8099 27.9097 34.7489 27.9927C34.6879 28.0758 34.6002 28.1352 34.5005 28.161C34.4899 28.1635 34.4795 28.1666 34.4693 28.1703C34.4072 28.1813 34.3435 28.1791 34.2823 28.1639C34.2211 28.1487 34.1638 28.1207 34.1141 28.0819C34.0616 28.041 34.0192 27.9887 33.99 27.9289C33.9608 27.8692 33.9456 27.8035 33.9456 27.737V27.0342H33.0147V28.1885C33.013 28.2907 32.9767 28.3894 32.9115 28.4683C32.8464 28.5472 32.7565 28.6016 32.6564 28.6227L32.6345 28.6302C32.5687 28.6462 32.5002 28.6471 32.4341 28.6328C32.368 28.6184 32.306 28.5892 32.2528 28.5473C32.2002 28.5065 32.1577 28.4542 32.1284 28.3944C32.0991 28.3347 32.0839 28.269 32.0839 28.2024V27.0342H31.153V28.4305C31.1532 28.5434 31.1122 28.6526 31.0375 28.7373C30.9628 28.822 30.8597 28.8765 30.7476 28.8904C30.6762 28.8985 30.6039 28.8905 30.5362 28.8668C30.4684 28.8431 30.4068 28.8044 30.3561 28.7535C30.3131 28.7115 30.2791 28.6612 30.2561 28.6057C30.233 28.5502 30.2215 28.4906 30.2221 28.4305V27.0342H29.2912V28.1978C29.2919 28.3348 29.2514 28.469 29.1748 28.5827C29.1146 28.6651 29.0377 28.7339 28.9492 28.7847C28.8607 28.8354 28.7624 28.867 28.6609 28.8773C28.5594 28.8876 28.4568 28.8765 28.3599 28.8446C28.2629 28.8127 28.1738 28.7607 28.0982 28.6921C27.9679 28.5606 27.8947 28.3829 27.8948 28.1978V13.0707H26.9639V31.4559C26.9639 31.6411 26.8904 31.8186 26.7595 31.9496C26.6285 32.0805 26.4509 32.1541 26.2658 32.1541C26.0806 32.1541 25.903 32.0805 25.7721 31.9496C25.6412 31.8186 25.5676 31.6411 25.5676 31.4559V30.2923H24.6367V31.6886C24.6369 31.7507 24.6243 31.8122 24.5998 31.8693C24.5753 31.9264 24.5394 31.9778 24.4943 32.0205C24.4521 32.0632 24.4018 32.097 24.3463 32.12C24.2908 32.1429 24.2313 32.1545 24.1713 32.1541C24.0478 32.1541 23.9294 32.105 23.8421 32.0177C23.7549 31.9305 23.7058 31.8121 23.7058 31.6886V30.2923H22.7749V31.4606C22.7742 31.5255 22.7593 31.5895 22.7313 31.6481C22.7033 31.7067 22.6629 31.7585 22.6128 31.7998C22.5627 31.8412 22.5042 31.8711 22.4414 31.8875C22.3785 31.9039 22.3129 31.9064 22.249 31.8948L22.1815 31.8748C22.0855 31.8513 22.0002 31.7964 21.939 31.7188C21.8778 31.6412 21.8444 31.5454 21.844 31.4466V30.2923H20.9131V30.9951C20.9131 31.0617 20.8979 31.1274 20.8686 31.1871C20.8393 31.2469 20.7968 31.2992 20.7442 31.34C20.695 31.379 20.6381 31.407 20.5773 31.4223C20.5165 31.4375 20.4531 31.4396 20.3914 31.4284L20.3583 31.4191C20.2935 31.4025 20.2334 31.3714 20.1824 31.3281C20.1315 31.2848 20.091 31.2304 20.0642 31.1692L20.8233 29.6514L23.7896 27.056C24.1255 26.7623 24.337 26.3518 24.3813 25.9078C24.4255 25.4638 24.2992 25.0196 24.028 24.6653C23.7567 24.311 23.3609 24.0732 22.9207 24.0001C22.4805 23.927 22.029 24.0241 21.6578 24.2717L20.8331 24.8219L22.1652 14.6649L22.3821 13.1755L21.461 13.0405L21.2971 14.273C18.2552 15.6223 15.7955 18.0142 14.3618 21.0173C12.9281 24.0203 12.6147 27.4369 13.4781 30.6507L13.4753 30.6646C13.4702 30.6879 13.4671 30.7116 13.466 30.7354L13.0005 40.5098C12.9975 40.5727 13.0073 40.6357 13.0293 40.6948C13.0514 40.7538 13.0852 40.8078 13.1287 40.8534C13.1722 40.899 13.2246 40.9353 13.2825 40.9601C13.3405 40.9849 13.4029 40.9976 13.466 40.9976H19.0513C19.115 40.9977 19.178 40.9848 19.2364 40.9596C19.2948 40.9344 19.3475 40.8975 19.3911 40.8512C19.4347 40.8049 19.4684 40.7501 19.49 40.6902C19.5116 40.6304 19.5207 40.5668 19.5168 40.5033L19.4088 38.7727C21.5924 40.1804 24.1258 40.9502 26.7234 40.9954C29.321 41.0407 31.8796 40.3595 34.1109 39.0287L33.9494 40.4809C33.9422 40.5459 33.9488 40.6116 33.9687 40.6739C33.9886 40.7362 34.0214 40.7935 34.0649 40.8423C34.1085 40.891 34.1618 40.93 34.2215 40.9568C34.2811 40.9835 34.3457 40.9974 34.4111 40.9976H40.4619C40.5853 40.9976 40.7037 40.9485 40.791 40.8612C40.8783 40.7739 40.9273 40.6556 40.9273 40.5321V25.6378C40.9276 25.6065 40.9245 25.5753 40.918 25.5447L39.6478 19.1946ZM20.0846 32.3091C20.1033 32.3163 20.1224 32.3224 20.1419 32.3272C20.2496 32.3534 20.3601 32.3667 20.471 32.3668C20.7044 32.3664 20.9339 32.3061 21.1375 32.1918C21.3191 32.4791 21.6034 32.6865 21.9325 32.7717L22.0037 32.7927C22.1114 32.8189 22.2219 32.8321 22.3327 32.8322C22.6109 32.8307 22.8819 32.7443 23.1096 32.5846C23.2392 32.7406 23.4014 32.8662 23.5848 32.9527C23.7683 33.0392 23.9685 33.0843 24.1713 33.085C24.3537 33.0864 24.5346 33.0512 24.7032 32.9813C24.8718 32.9114 25.0245 32.8083 25.1524 32.6782C25.1599 32.6712 25.165 32.6623 25.172 32.6549C25.4799 32.939 25.8858 33.0929 26.3047 33.0842C26.7236 33.0756 27.1228 32.905 27.4187 32.6083C27.7229 32.3018 27.894 31.8877 27.8948 31.4559V29.6649C28.186 29.8061 28.5129 29.8566 28.8331 29.81C29.1533 29.7633 29.4522 29.6217 29.691 29.4033L29.698 29.4112C29.8263 29.5437 29.9801 29.6488 30.1502 29.7203C30.3203 29.7917 30.5031 29.8279 30.6875 29.8268C30.7453 29.826 30.8029 29.822 30.8602 29.8147C31.2085 29.7715 31.5275 29.5979 31.7529 29.3288C31.9792 29.4861 32.2481 29.5707 32.5237 29.5713C32.6436 29.5713 32.763 29.5566 32.8793 29.5276L32.9054 29.5196C33.2414 29.4341 33.5325 29.2246 33.7204 28.9332C33.9241 29.048 34.154 29.1084 34.3878 29.1087C34.4987 29.1086 34.6092 29.0953 34.7169 29.0691C34.7341 29.0647 34.751 29.0594 34.7676 29.0533C34.9428 29.002 35.1057 28.9157 35.2466 28.7996L34.6108 34.5213C32.8787 36.2815 30.5948 37.3937 28.1411 37.6719C28.3068 37.4344 28.3837 37.1461 28.3581 36.8576C28.3326 36.5691 28.2063 36.2988 28.0014 36.0941C27.918 36.0154 27.8288 35.9431 27.7347 35.8776C27.8277 35.812 27.9158 35.7397 27.9982 35.6612C28.23 35.4293 28.3603 35.1148 28.3603 34.7869C28.3603 34.4589 28.23 34.1444 27.9982 33.9125C27.7626 33.6876 27.4493 33.5621 27.1236 33.5621C26.7978 33.5621 26.4846 33.6876 26.249 33.9125C26.1708 33.9949 26.0986 34.0828 26.033 34.1755C25.9676 34.0827 25.8954 33.9948 25.8171 33.9125C25.5815 33.6875 25.2683 33.5619 24.9425 33.5619C24.6167 33.5619 24.3035 33.6875 24.0679 33.9125C23.8361 34.1444 23.7058 34.4589 23.7058 34.7869C23.7058 35.1148 23.8361 35.4293 24.0679 35.6612C24.1503 35.7397 24.2384 35.812 24.3314 35.8776C24.2384 35.9432 24.1503 36.0156 24.0679 36.0941C23.9198 36.2406 23.8116 36.4226 23.7537 36.6228C23.6959 36.823 23.6903 37.0347 23.7375 37.2377C21.9768 36.6796 20.3898 35.677 19.1295 34.3268L19.0579 33.1808L19.6164 32.0638C19.7549 32.1754 19.914 32.2587 20.0846 32.3091ZM24.6367 34.7866C24.6368 34.7262 24.6548 34.6672 24.6884 34.617C24.722 34.5668 24.7697 34.5277 24.8256 34.5046C24.8814 34.4815 24.9428 34.4755 25.002 34.4872C25.0613 34.499 25.1157 34.528 25.1585 34.5707C25.3814 34.7955 25.5223 35.0888 25.5583 35.4034C25.2436 35.3673 24.9503 35.2263 24.7256 35.0031C24.6972 34.9747 24.6748 34.9409 24.6595 34.9037C24.6442 34.8666 24.6365 34.8268 24.6367 34.7866ZM26.5073 35.4034C26.5434 35.0888 26.6842 34.7955 26.9072 34.5707C26.9645 34.5133 27.0423 34.481 27.1234 34.481C27.2046 34.4809 27.2824 34.5131 27.3398 34.5704C27.3972 34.6278 27.4295 34.7056 27.4295 34.7867C27.4296 34.8678 27.3974 34.9457 27.34 35.0031C27.1154 35.2263 26.822 35.3673 26.5073 35.4034ZM27.3396 37.1846C27.2813 37.2402 27.2039 37.2712 27.1234 37.2712C27.0428 37.2712 26.9654 37.2402 26.9072 37.1846C26.6842 36.9598 26.5434 36.6665 26.5073 36.3519C26.822 36.3879 27.1154 36.529 27.34 36.7522C27.3974 36.8096 27.4296 36.8873 27.4296 36.9684C27.4296 37.0495 27.3969 37.1273 27.3396 37.1846ZM24.7261 36.7522C24.9507 36.529 25.2441 36.3879 25.5588 36.3519C25.5227 36.6665 25.3819 36.9598 25.1589 37.1846C25.1007 37.2402 25.0233 37.2712 24.9427 37.2712C24.8622 37.2712 24.7848 37.2402 24.7265 37.1846C24.6693 37.1272 24.6372 37.0495 24.6372 36.9684C24.6372 36.8874 24.6693 36.8096 24.7265 36.7522H24.7261ZM26.033 37.5798C26.0647 37.6221 26.0996 37.6626 26.1345 37.7031C26.0712 37.6985 26.0074 37.6943 25.9441 37.6882C25.9744 37.6524 26.0051 37.617 26.033 37.5798ZM20.4672 20.5179H18.5859C18.5432 20.5195 18.5009 20.527 18.4602 20.5402C19.1116 19.6897 19.8866 18.9416 20.7595 18.3205L20.4672 20.5179ZM13.9314 27.0342C13.9297 24.6106 14.6047 22.2347 15.8803 20.174C17.1559 18.1134 18.9815 16.4497 21.1514 15.3705L20.9187 17.1034C18.9041 18.33 17.3091 20.1389 16.3443 22.2912L15.5139 23.0043C15.1195 23.3435 14.8496 23.8046 14.7469 24.3145L13.9836 28.1312C13.9519 27.7672 13.9314 27.4023 13.9314 27.0342ZM13.9542 40.0667L14.3969 30.8145L15.6578 24.4975C15.7199 24.1914 15.882 23.9147 16.1186 23.7109L18.7581 21.4488H20.3439L19.8044 25.5075L18.793 26.1815L19.3097 26.956L22.174 25.0476C22.3485 24.9322 22.5604 24.8872 22.7668 24.9219C22.9731 24.9565 23.1587 25.0682 23.2859 25.2344C23.4131 25.4005 23.4725 25.6088 23.4522 25.8171C23.4318 26.0253 23.3331 26.2181 23.1761 26.3565L20.141 29.0123C20.0957 29.0525 20.0585 29.1008 20.0311 29.1547L18.1693 32.8783C18.1334 32.9519 18.1174 33.0335 18.1228 33.1152L18.5561 40.0667H13.9542ZM26.9639 40.0667C24.2222 40.0739 21.5496 39.2072 19.3339 37.5923L19.2166 35.7147C21.3044 37.5798 23.9951 38.6288 26.7943 38.6691C29.5936 38.7094 32.3133 37.7382 34.4539 35.934L34.2426 37.8367C32.0953 39.294 29.559 40.071 26.9639 40.0667ZM39.9965 40.0667H34.931L36.2701 28.0162C36.2795 27.9272 36.2634 27.8372 36.2235 27.757L34.3618 24.0334C34.3344 23.9795 34.2971 23.9312 34.2519 23.891L31.2167 21.2352C31.0597 21.0968 30.9611 20.904 30.9407 20.6957C30.9203 20.4875 30.9798 20.2792 31.107 20.1131C31.2342 19.9469 31.4197 19.8352 31.6261 19.8006C31.8325 19.7659 32.0443 19.8108 32.2188 19.9263L35.0832 21.8346L35.5998 21.0601L34.8551 20.563L34.3078 16.3289H35.6352L38.2743 18.5914C38.5109 18.795 38.673 19.0716 38.7351 19.3776L39.9965 25.6844V40.0667Z" fill="white"/>
<path d="M29.6259 34.3353C29.7395 34.3323 29.8527 34.3211 29.9647 34.3018C29.9455 34.4138 29.9344 34.527 29.9317 34.6406C29.9317 34.9686 30.062 35.2832 30.2939 35.5151C30.5258 35.747 30.8404 35.8773 31.1684 35.8773C31.4964 35.8773 31.8109 35.747 32.0428 35.5151C32.2748 35.2832 32.4051 34.9686 32.4051 34.6406C32.4021 34.527 32.3909 34.4138 32.3715 34.3018C32.4835 34.3211 32.5968 34.3323 32.7104 34.3353C33.0384 34.3353 33.3529 34.205 33.5849 33.9731C33.8168 33.7412 33.9471 33.4266 33.9471 33.0986C33.9471 32.7706 33.8168 32.4561 33.5849 32.2241C33.3529 31.9922 33.0384 31.8619 32.7104 31.8619C32.5965 31.8647 32.4829 31.8757 32.3706 31.895C32.3903 31.7832 32.4017 31.6701 32.4046 31.5566C32.4078 31.3922 32.3782 31.2288 32.3175 31.076C32.2567 30.9232 32.1662 30.784 32.051 30.6666C31.9359 30.5493 31.7985 30.456 31.6469 30.3923C31.4953 30.3287 31.3326 30.2959 31.1681 30.2959C31.0037 30.2959 30.8409 30.3287 30.6893 30.3923C30.5377 30.456 30.4003 30.5493 30.2852 30.6666C30.1701 30.784 30.0795 30.9232 30.0188 31.076C29.9581 31.2288 29.9285 31.3922 29.9317 31.5566C29.9344 31.67 29.9455 31.7831 29.9647 31.895C29.8529 31.8757 29.7398 31.8647 29.6263 31.8619C29.2983 31.8619 28.9838 31.9922 28.7519 32.2241C28.5199 32.4561 28.3896 32.7706 28.3896 33.0986C28.3896 33.4266 28.5199 33.7412 28.7519 33.9731C28.9838 34.205 29.2979 34.3353 29.6259 34.3353ZM31.1679 34.9464C31.0869 34.9463 31.0092 34.914 30.952 34.8567C30.8947 34.7994 30.8626 34.7217 30.8626 34.6406C30.8634 34.324 30.971 34.0168 31.1679 33.7689C31.3651 34.0167 31.4731 34.3239 31.4742 34.6406C31.474 34.7218 31.4417 34.7996 31.3843 34.8569C31.3269 34.9142 31.249 34.9464 31.1679 34.9464ZM33.0162 33.0981C33.0162 33.1793 32.984 33.2571 32.9267 33.3145C32.8693 33.372 32.7915 33.4043 32.7104 33.4044C32.3932 33.4051 32.0853 33.297 31.8381 33.0981C32.0854 32.8996 32.3933 32.7919 32.7104 32.7928C32.7914 32.7928 32.8691 32.825 32.9265 32.8822C32.9838 32.9395 33.0161 33.0171 33.0162 33.0981ZM31.1679 31.2503C31.2081 31.2503 31.2479 31.2581 31.285 31.2735C31.3221 31.2888 31.3559 31.3113 31.3843 31.3397C31.4127 31.3682 31.4352 31.4019 31.4505 31.439C31.4659 31.4761 31.4738 31.5159 31.4737 31.5561C31.473 31.8729 31.3653 32.1801 31.1679 32.4279C30.971 32.1799 30.8634 31.8728 30.8626 31.5561C30.8626 31.4751 30.8947 31.3974 30.952 31.34C31.0092 31.2827 31.0869 31.2504 31.1679 31.2503ZM29.6259 32.7923C29.9429 32.7917 30.2505 32.8996 30.4977 33.0981C30.2498 33.2955 29.9427 33.4034 29.6259 33.4044C29.5468 33.4013 29.4719 33.3677 29.4171 33.3107C29.3622 33.2536 29.3315 33.1775 29.3315 33.0984C29.3315 33.0192 29.3622 32.9431 29.4171 32.8861C29.4719 32.829 29.5468 32.7954 29.6259 32.7923Z" fill="white"/>
<defs>
<linearGradient id="paint0_linear_1319_1288" x1="17.5" y1="3" x2="31" y2="53.5" gradientUnits="userSpaceOnUse">
<stop stop-color="#FD833A"/>
<stop offset="1" stop-color="#F51E29"/>
</linearGradient>
</defs>
</svg>
